<?xml version="1.0" encoding="UTF-8"?>
<svg version="1.1" xmlns="http://www.w3.org/2000/svg" width="660" height="330">
<path d="M0 0 C217.8 0 435.6 0 660 0 C660 108.9 660 217.8 660 330 C442.2 330 224.4 330 0 330 C0 221.1 0 112.2 0 0 Z " fill="#FEFEFE" transform="translate(0,0)"/>
<path d="M0 0 C3.48547599 0.2739125 6.97151822 0.53930304 10.45776367 0.80322266 C21.56338584 1.65362433 32.65679247 2.55864107 43.73075867 3.7593689 C49.13332091 4.33369634 54.51931945 4.63812028 59.94799805 4.83837891 C68.95268813 5.20877439 77.82942912 6.21258771 86.7722168 7.30810547 C95.94758438 8.41254786 105.09049855 9.05495838 114.32299805 9.40087891 C117.04604998 15.25328539 119.34242825 21.10055169 121.27612305 27.25634766 C121.53763657 28.07288818 121.79915009 28.88942871 122.06858826 29.73071289 C122.62263998 31.46067572 123.17472467 33.19126963 123.72494507 34.92245483 C131.48115723 59.3197695 131.48115723 59.3197695 140.4909668 83.27587891 C141.41120986 85.62617105 141.89724512 87.91732017 142.32299805 90.40087891 C142.98299805 90.40087891 143.64299805 90.40087891 144.32299805 90.40087891 C144.46608398 89.10537109 144.46608398 89.10537109 144.61206055 87.78369141 C146.96040162 76.60971687 156.49388776 67.23531512 164.32299805 59.40087891 C165.2150293 58.48564453 166.10706055 57.57041016 167.02612305 56.62744141 C177.67412525 46.24712641 190.43468916 38.10011933 204.13549805 32.33837891 C204.75513428 32.07573242 205.37477051 31.81308594 206.01318359 31.54248047 C217.21310837 27.16599676 228.8179517 25.8387805 240.76049805 25.90087891 C242.0638208 25.90659912 243.36714355 25.91231934 244.70996094 25.91821289 C263.0730363 26.25208699 279.8515196 31.35250791 297.24487305 36.82275391 C312.43906314 41.58977754 333.12101942 46.98478735 348.32299805 39.40087891 C351.24461465 37.85199481 351.24461465 37.85199481 353.32299805 36.40087891 C350.24146937 45.1918389 341.88075374 55.68112612 333.38549805 59.83837891 C332.70487305 60.02400391 332.02424805 60.20962891 331.32299805 60.40087891 C331.32299805 61.06087891 331.32299805 61.72087891 331.32299805 62.40087891 C309.53553507 79.88469367 277.44689728 87.57323115 250.13549805 87.58837891 C248.99274414 87.600625 247.84999023 87.61287109 246.67260742 87.62548828 C224.53048596 87.66303852 203.20749189 81.18957019 186.32299805 66.40087891 C184.95133431 64.76561313 183.60691865 63.10590191 182.32299805 61.40087891 C183.33554686 58.39849337 184.15016404 57.49752055 186.95800781 55.92749023 C199.00883766 51.59168401 210.5748767 51.82804516 223.26049805 52.08837891 C225.40825827 52.11351693 227.55604714 52.13632028 229.70385742 52.15673828 C234.91095873 52.21124155 240.11665318 52.29720498 245.32299805 52.40087891 C233.01316694 50.02347807 221.02421446 48.00998981 208.44799805 48.02587891 C207.4818457 48.02458984 206.51569336 48.02330078 205.52026367 48.02197266 C193.01364839 48.21291335 181.76566934 50.78006974 172.32299805 59.40087891 C162.14157937 70.56927184 154.70915499 81.15315251 153.32299805 96.40087891 C155.96299805 95.74087891 158.60299805 95.08087891 161.32299805 94.40087891 C161.75276317 103.3463603 160.90567218 108.71158023 154.98095703 115.73461914 C151.58091385 119.15168507 147.46093068 121.64005733 143.44799805 124.27587891 C141.47587697 125.59504561 139.50454912 126.9153988 137.53393555 128.23681641 C136.51525391 128.91711914 135.49657227 129.59742188 134.44702148 130.29833984 C129.28199708 133.77451913 124.17782367 137.33713272 119.07299805 140.90087891 C118.14632324 141.54653809 117.21964844 142.19219727 116.26489258 142.85742188 C115.37141113 143.4802002 114.47792969 144.10297852 113.55737305 144.74462891 C112.68741699 145.34976318 111.81746094 145.95489746 110.92114258 146.57836914 C109.16859923 147.80771852 107.42490182 149.049763 105.68969727 150.3034668 C90.76769155 161.02079672 76.78337512 163.07121949 58.7722168 160.99072266 C47.03881791 158.69274181 38.45269408 150.580689 31.32299805 141.40087891 C30.90501953 140.86479004 30.48704102 140.32870117 30.05639648 139.77636719 C19.92509266 126.59263694 12.11027071 112.04142896 4.32299805 97.40087891 C3.70521484 96.23975586 3.08743164 95.07863281 2.45092773 93.88232422 C-6.64913389 76.68373487 -15.22337533 59.24283859 -23.63391113 41.69863892 C-25.70942288 37.38002084 -27.82063763 33.08082988 -29.95986938 28.79342651 C-31.38621656 25.93402041 -32.8027157 23.06978549 -34.21875 20.20526123 C-34.89358155 18.84708405 -35.57319575 17.49127163 -36.2578125 16.13800049 C-37.20314985 14.26806712 -38.1311667 12.39043718 -39.0559082 10.51025391 C-39.85363647 8.91648926 -39.85363647 8.91648926 -40.66748047 7.29052734 C-41.77376107 4.12391618 -41.66712508 2.56024201 -40.67700195 -0.59912109 C-28.71522121 -4.58638134 -12.29481474 -0.96695966 0 0 Z " fill="#F3F3F3" transform="translate(173.677001953125,77.59912109375)"/>
<path d="M0 0 C3.48547599 0.2739125 6.97151822 0.53930304 10.45776367 0.80322266 C21.56338584 1.65362433 32.65679247 2.55864107 43.73075867 3.7593689 C49.13332091 4.33369634 54.51931945 4.63812028 59.94799805 4.83837891 C68.95268813 5.20877439 77.82942912 6.21258771 86.7722168 7.30810547 C95.94758438 8.41254786 105.09049855 9.05495838 114.32299805 9.40087891 C117.0460549 15.25329597 119.34235223 21.1005698 121.27612305 27.25634766 C121.5377272 28.07288818 121.79933136 28.88942871 122.06886292 29.73071289 C122.62305348 31.46066047 123.17522893 33.19125475 123.72549438 34.92245483 C127.9179763 48.11040783 132.12391539 61.26548692 137.13842773 74.16918945 C138.61838989 78.04861927 139.75564926 81.16768366 139.32299805 85.40087891 C137.45019531 85.23120117 137.45019531 85.23120117 135.32299805 84.40087891 C134.18212891 82.11938477 134.18212891 82.11938477 133.2878418 79.11572266 C132.95333008 78.02710938 132.61881836 76.93849609 132.27416992 75.81689453 C131.9396582 74.66898437 131.60514648 73.52107422 131.26049805 72.33837891 C130.58382384 70.09697617 129.90547338 67.85607871 129.2253418 65.61572266 C128.90243164 64.54298096 128.57952148 63.47023926 128.24682617 62.36499023 C127.08554904 58.63902149 125.74975005 55.03333386 124.32299805 51.40087891 C123.92338867 50.37865234 123.5237793 49.35642578 123.11206055 48.30322266 C122.72791992 47.32482422 122.3437793 46.34642578 121.94799805 45.33837891 C118.16996362 35.52233779 114.78804478 25.63251122 112.32299805 15.40087891 C111.63343018 15.41135254 110.9438623 15.42182617 110.23339844 15.43261719 C86.51747205 15.7313112 62.84044182 15.01224613 39.14233685 14.1837635 C21.52767325 13.57020617 3.94926764 13.25887142 -13.67700195 13.40087891 C-13.87254097 18.8014577 -12.60013565 22.11000839 -9.92700195 26.71337891 C-9.18389823 28.04678048 -8.44299576 29.38141129 -7.7043457 30.71728516 C-7.34969238 31.35424316 -6.99503906 31.99120117 -6.62963867 32.64746094 C-4.73891638 36.12751411 -3.22429193 39.7598093 -1.67700195 43.40087891 C1.33069457 50.19145147 4.51345975 56.86545802 7.89331055 63.47900391 C8.89093573 65.51786629 9.82829836 67.58684014 10.71801758 69.67504883 C12.19590563 73.14270485 13.79226344 76.5415707 15.43237305 79.93603516 C15.72227112 80.5366124 16.01216919 81.13718964 16.31085205 81.75596619 C16.9219102 83.0210171 17.53371606 84.2857071 18.14624023 85.55004883 C19.05860614 87.43366622 19.96834512 89.31853378 20.87768555 91.20361328 C23.90802175 97.47721161 26.96467049 103.73783457 30.0612793 109.97900391 C30.87786011 111.62690918 30.87786011 111.62690918 31.7109375 113.30810547 C38.12803697 125.61945124 48.3026429 144.24580193 61.32299805 150.40087891 C73.65194211 153.24243654 85.02129731 153.54002698 95.94799805 146.77587891 C102.33019016 140.39368679 103.99568181 133.43376527 105.0612793 124.63525391 C107.26723996 118.98034547 112.0183328 117.42670313 117.34960938 115.05371094 C118.43910889 114.58433105 119.5286084 114.11495117 120.65112305 113.63134766 C133.63789824 108.89699402 133.63789824 108.89699402 142.69799805 99.41650391 C143.44216952 96.71608561 143.74700875 94.04697292 143.9831543 91.26025391 C145.21718672 77.24618452 157.57900386 65.55551861 167.32299805 56.40087891 C167.90049805 55.84142578 168.47799805 55.28197266 169.07299805 54.70556641 C192.72071444 32.79065682 220.92092707 25.08574803 252.48706055 26.17871094 C267.83917123 27.06786704 282.67191223 32.23952728 297.24487305 36.82275391 C312.43906314 41.58977754 333.12101942 46.98478735 348.32299805 39.40087891 C351.24461465 37.85199481 351.24461465 37.85199481 353.32299805 36.40087891 C350.24146937 45.1918389 341.88075374 55.68112612 333.38549805 59.83837891 C332.70487305 60.02400391 332.02424805 60.20962891 331.32299805 60.40087891 C331.32299805 61.06087891 331.32299805 61.72087891 331.32299805 62.40087891 C309.53553507 79.88469367 277.44689728 87.57323115 250.13549805 87.58837891 C248.99274414 87.600625 247.84999023 87.61287109 246.67260742 87.62548828 C224.53048596 87.66303852 203.20749189 81.18957019 186.32299805 66.40087891 C184.95133431 64.76561313 183.60691865 63.10590191 182.32299805 61.40087891 C183.33554686 58.39849337 184.15016404 57.49752055 186.95800781 55.92749023 C199.00883766 51.59168401 210.5748767 51.82804516 223.26049805 52.08837891 C225.40825827 52.11351693 227.55604714 52.13632028 229.70385742 52.15673828 C234.91095873 52.21124155 240.11665318 52.29720498 245.32299805 52.40087891 C233.01316694 50.02347807 221.02421446 48.00998981 208.44799805 48.02587891 C207.4818457 48.02458984 206.51569336 48.02330078 205.52026367 48.02197266 C193.01364839 48.21291335 181.76566934 50.78006974 172.32299805 59.40087891 C162.14157937 70.56927184 154.70915499 81.15315251 153.32299805 96.40087891 C155.96299805 95.74087891 158.60299805 95.08087891 161.32299805 94.40087891 C161.75276317 103.3463603 160.90567218 108.71158023 154.98095703 115.73461914 C151.58091385 119.15168507 147.46093068 121.64005733 143.44799805 124.27587891 C141.47587697 125.59504561 139.50454912 126.9153988 137.53393555 128.23681641 C136.51525391 128.91711914 135.49657227 129.59742188 134.44702148 130.29833984 C129.28199708 133.77451913 124.17782367 137.33713272 119.07299805 140.90087891 C118.14632324 141.54653809 117.21964844 142.19219727 116.26489258 142.85742188 C115.37141113 143.4802002 114.47792969 144.10297852 113.55737305 144.74462891 C112.68741699 145.34976318 111.81746094 145.95489746 110.92114258 146.57836914 C109.16859923 147.80771852 107.42490182 149.049763 105.68969727 150.3034668 C90.76769155 161.02079672 76.78337512 163.07121949 58.7722168 160.99072266 C47.03881791 158.69274181 38.45269408 150.580689 31.32299805 141.40087891 C30.90501953 140.86479004 30.48704102 140.32870117 30.05639648 139.77636719 C19.92509266 126.59263694 12.11027071 112.04142896 4.32299805 97.40087891 C3.70521484 96.23975586 3.08743164 95.07863281 2.45092773 93.88232422 C-6.64913389 76.68373487 -15.22337533 59.24283859 -23.63391113 41.69863892 C-25.70942288 37.38002084 -27.82063763 33.08082988 -29.95986938 28.79342651 C-31.38621656 25.93402041 -32.8027157 23.06978549 -34.21875 20.20526123 C-34.89358155 18.84708405 -35.57319575 17.49127163 -36.2578125 16.13800049 C-37.20314985 14.26806712 -38.1311667 12.39043718 -39.0559082 10.51025391 C-39.85363647 8.91648926 -39.85363647 8.91648926 -40.66748047 7.29052734 C-41.77376107 4.12391618 -41.66712508 2.56024201 -40.67700195 -0.59912109 C-28.71522121 -4.58638134 -12.29481474 -0.96695966 0 0 Z " fill="#249D53" transform="translate(173.677001953125,77.59912109375)"/>
<path d="M0 0 C3.48547599 0.2739125 6.97151822 0.53930304 10.45776367 0.80322266 C21.56338584 1.65362433 32.65679247 2.55864107 43.73075867 3.7593689 C49.13332091 4.33369634 54.51931945 4.63812028 59.94799805 4.83837891 C68.95268813 5.20877439 77.82942912 6.21258771 86.7722168 7.30810547 C95.94758438 8.41254786 105.09049855 9.05495838 114.32299805 9.40087891 C117.0460549 15.25329597 119.34235223 21.1005698 121.27612305 27.25634766 C121.5377272 28.07288818 121.79933136 28.88942871 122.06886292 29.73071289 C122.62305348 31.46066047 123.17522893 33.19125475 123.72549438 34.92245483 C127.9179763 48.11040783 132.12391539 61.26548692 137.13842773 74.16918945 C138.61838989 78.04861927 139.75564926 81.16768366 139.32299805 85.40087891 C137.45019531 85.23120117 137.45019531 85.23120117 135.32299805 84.40087891 C134.18212891 82.11938477 134.18212891 82.11938477 133.2878418 79.11572266 C132.95333008 78.02710938 132.61881836 76.93849609 132.27416992 75.81689453 C131.9396582 74.66898437 131.60514648 73.52107422 131.26049805 72.33837891 C130.58382384 70.09697617 129.90547338 67.85607871 129.2253418 65.61572266 C128.90243164 64.54298096 128.57952148 63.47023926 128.24682617 62.36499023 C127.08554904 58.63902149 125.74975005 55.03333386 124.32299805 51.40087891 C123.92338867 50.37865234 123.5237793 49.35642578 123.11206055 48.30322266 C122.72791992 47.32482422 122.3437793 46.34642578 121.94799805 45.33837891 C118.16996362 35.52233779 114.78804478 25.63251122 112.32299805 15.40087891 C111.63343018 15.41135254 110.9438623 15.42182617 110.23339844 15.43261719 C86.51747205 15.7313112 62.84044182 15.01224613 39.14233685 14.1837635 C21.52767325 13.57020617 3.94926764 13.25887142 -13.67700195 13.40087891 C-13.87254097 18.8014577 -12.60013565 22.11000839 -9.92700195 26.71337891 C-9.18389823 28.04678048 -8.44299576 29.38141129 -7.7043457 30.71728516 C-7.34969238 31.35424316 -6.99503906 31.99120117 -6.62963867 32.64746094 C-4.73891638 36.12751411 -3.22429193 39.7598093 -1.67700195 43.40087891 C1.33069457 50.19145147 4.51345975 56.86545802 7.89331055 63.47900391 C8.89093573 65.51786629 9.82829836 67.58684014 10.71801758 69.67504883 C12.19590563 73.14270485 13.79226344 76.5415707 15.43237305 79.93603516 C15.72227112 80.5366124 16.01216919 81.13718964 16.31085205 81.75596619 C16.9219102 83.0210171 17.53371606 84.2857071 18.14624023 85.55004883 C19.05860614 87.43366622 19.96834512 89.31853378 20.87768555 91.20361328 C23.90802175 97.47721161 26.96467049 103.73783457 30.0612793 109.97900391 C30.87786011 111.62690918 30.87786011 111.62690918 31.7109375 113.30810547 C38.12803697 125.61945124 48.3026429 144.24580193 61.32299805 150.40087891 C73.65194211 153.24243654 85.02129731 153.54002698 95.94799805 146.77587891 C102.33019016 140.39368679 103.99568181 133.43376527 105.0612793 124.63525391 C106.92599348 119.85511971 109.8698551 118.6608458 114.32299805 116.40087891 C115.86612671 115.5998877 115.86612671 115.5998877 117.44042969 114.78271484 C121.01151563 112.95747623 124.6010407 111.1743065 128.19799805 109.40087891 C129.4260512 108.79188401 130.65391694 108.18251105 131.8815918 107.57275391 C134.26022248 106.39169092 136.64046253 105.21409462 139.02172852 104.03833008 C142.73898207 102.19454812 146.43891981 100.3180315 150.1315918 98.42553711 C153.74419035 96.7363575 157.50510809 95.53517955 161.32299805 94.40087891 C161.75276317 103.3463603 160.90567218 108.71158023 154.98095703 115.73461914 C151.58091385 119.15168507 147.46093068 121.64005733 143.44799805 124.27587891 C141.47587697 125.59504561 139.50454912 126.9153988 137.53393555 128.23681641 C136.51525391 128.91711914 135.49657227 129.59742188 134.44702148 130.29833984 C129.28199708 133.77451913 124.17782367 137.33713272 119.07299805 140.90087891 C118.14632324 141.54653809 117.21964844 142.19219727 116.26489258 142.85742188 C115.37141113 143.4802002 114.47792969 144.10297852 113.55737305 144.74462891 C112.68741699 145.34976318 111.81746094 145.95489746 110.92114258 146.57836914 C109.16859923 147.80771852 107.42490182 149.049763 105.68969727 150.3034668 C90.76769155 161.02079672 76.78337512 163.07121949 58.7722168 160.99072266 C47.03881791 158.69274181 38.45269408 150.580689 31.32299805 141.40087891 C30.90501953 140.86479004 30.48704102 140.32870117 30.05639648 139.77636719 C19.92509266 126.59263694 12.11027071 112.04142896 4.32299805 97.40087891 C3.70521484 96.23975586 3.08743164 95.07863281 2.45092773 93.88232422 C-6.64913389 76.68373487 -15.22337533 59.24283859 -23.63391113 41.69863892 C-25.70942288 37.38002084 -27.82063763 33.08082988 -29.95986938 28.79342651 C-31.38621656 25.93402041 -32.8027157 23.06978549 -34.21875 20.20526123 C-34.89358155 18.84708405 -35.57319575 17.49127163 -36.2578125 16.13800049 C-37.20314985 14.26806712 -38.1311667 12.39043718 -39.0559082 10.51025391 C-39.85363647 8.91648926 -39.85363647 8.91648926 -40.66748047 7.29052734 C-41.77376107 4.12391618 -41.66712508 2.56024201 -40.67700195 -0.59912109 C-28.71522121 -4.58638134 -12.29481474 -0.96695966 0 0 Z " fill="#090A09" transform="translate(173.677001953125,77.59912109375)"/>
<path d="M0 0 C5.53628175 4.6938041 7.94359113 8.88880327 9 16 C8.10023438 16.27972656 7.20046875 16.55945313 6.2734375 16.84765625 C5.3596936 17.13249878 5.3596936 17.13249878 4.42749023 17.4230957 C3.03672839 17.85635433 1.64560307 18.28844764 0.25415039 18.71948242 C-4.08321135 20.06866501 -8.40402569 21.45874784 -12.71484375 22.890625 C-13.68405762 23.20894287 -14.65327148 23.52726074 -15.65185547 23.85522461 C-17.56117378 24.48317605 -19.46787781 25.119145 -21.37158203 25.76391602 C-26.46144007 27.42718092 -30.64306162 28.37476524 -36 28 C-35.89830839 30.94727535 -35.89830839 30.94727535 -35 34 C-29.89252345 36.71616686 -24.63693783 36.54631116 -19 36 C-15.30074585 34.61277969 -12.48023263 33.10029079 -10 30 C-9.773125 29.319375 -9.54625 28.63875 -9.3125 27.9375 C-7.49651434 25.25675927 -5.37791172 24.94670997 -2.30859375 24.3046875 C1.46745042 23.80632634 5.20062036 23.84169251 9 24 C8.75675656 28.98649053 7.21638391 31.72462225 3.9140625 35.26953125 C-6.96632044 45.10628562 -21.96672042 48.31337447 -36.265625 48.234375 C-40.26893641 47.89123402 -43.35292134 46.65150732 -47 45 C-47 44.34 -47 43.68 -47 43 C-47.598125 42.896875 -48.19625 42.79375 -48.8125 42.6875 C-51.90896924 41.71432395 -53.42293044 40.07577165 -54.94921875 37.23046875 C-57.44993878 30.31048687 -58.08471077 23.28549831 -57 16 C-55.47529511 12.80604634 -53.72642958 10.27437908 -51 8 C-50.34 8 -49.68 8 -49 8 C-49 7.34 -49 6.68 -49 6 C-37.61357119 -4.54298964 -13.40846714 -9.34345674 0 0 Z " fill="#259E54" transform="translate(273,134)"/>
<path d="M0 0 C6.08571316 1.55681034 9.13375253 4.40058388 12.75 9.4375 C14.14876061 12.30495926 14.53349403 14.85972372 15 18 C3.47934489 22.83232123 -6.25990159 23.28771094 -18.65234375 22.296875 C-23.58727882 21.92294884 -28.10589066 22.29725609 -33 23 C-33.4375 19.875 -33.4375 19.875 -33 16 C-29.7087161 11.85966026 -24.91618239 8.80594455 -20 7 C-16.51623665 6.64704837 -13.2032428 6.3983786 -10 8 C-10 7.34 -10 6.68 -10 6 C-9.01 6 -8.02 6 -7 6 C-7 5.34 -7 4.68 -7 4 C-6.1028125 3.8453125 -6.1028125 3.8453125 -5.1875 3.6875 C-2.71756736 2.91123545 -1.67748765 1.92911079 0 0 Z " fill="#279E55" transform="translate(267,132)"/>
<path d="M0 0 C2.81510269 3.30046523 2.97153167 5.29871677 3.12890625 9.5703125 C3.17080078 10.64667969 3.21269531 11.72304687 3.25585938 12.83203125 C3.29517578 13.95996094 3.33449219 15.08789062 3.375 16.25 C3.41818359 17.38566406 3.46136719 18.52132812 3.50585938 19.69140625 C3.6121604 22.50247768 3.71419405 25.31363945 3.8125 28.125 C1.1725 28.125 -1.4675 28.125 -4.1875 28.125 C-4.1875 27.135 -4.1875 26.145 -4.1875 25.125 C-4.97125 25.62 -5.755 26.115 -6.5625 26.625 C-11.21798075 28.55140583 -15.21875396 29.15016557 -20.1875 28.125 C-23.39180838 25.98403672 -24.91875535 23.34928117 -25.75 19.5625 C-24.97465543 16.20267354 -23.57848367 14.60249953 -21.1875 12.125 C-18.05859375 10.98046875 -18.05859375 10.98046875 -14.625 10.3125 C-13.48933594 10.07917969 -12.35367187 9.84585938 -11.18359375 9.60546875 C-8.1875 9.125 -8.1875 9.125 -5.1875 9.125 C-5.5175 7.805 -5.8475 6.485 -6.1875 5.125 C-9.4875 5.125 -12.7875 5.125 -16.1875 5.125 C-16.1875 5.785 -16.1875 6.445 -16.1875 7.125 C-18.4975 6.795 -20.8075 6.465 -23.1875 6.125 C-22.62600643 2.86833728 -21.81520014 1.16876677 -19.1875 -0.875 C-13.09561287 -2.85074718 -5.54194862 -3.25996977 0 0 Z " fill="#131313" transform="translate(408.1875,185.875)"/>
<path d="M0 0 C1.66482422 -0.05607422 1.66482422 -0.05607422 3.36328125 -0.11328125 C7.70012941 0.44220224 9.59266001 1.17633425 12.6875 4.3125 C13.54822222 7.97643189 13.52665012 11.56210146 13.5 15.3125 C13.52429259 17.29170647 13.55152202 19.2708796 13.58203125 21.25 C13.58050049 22.12527344 13.57896973 23.00054687 13.57739258 23.90234375 C13.68163858 26.18419854 14.04698404 28.12694926 14.6875 30.3125 C12.0475 30.3125 9.4075 30.3125 6.6875 30.3125 C6.6875 29.3225 6.6875 28.3325 6.6875 27.3125 C5.90375 27.8075 5.12 28.3025 4.3125 28.8125 C-0.36140479 30.74652957 -4.32031111 31.18467942 -9.3125 30.3125 C-12.4375 28.25 -12.4375 28.25 -14.3125 25.3125 C-14.875 21.75 -14.875 21.75 -14.3125 18.3125 C-11.39721742 14.60651578 -8.78964166 13.57505948 -4.25 12.5625 C-3.20714844 12.32015625 -2.16429687 12.0778125 -1.08984375 11.828125 C1.6875 11.3125 1.6875 11.3125 4.6875 11.3125 C4.0275 9.6625 3.3675 8.0125 2.6875 6.3125 C-0.18700983 6.06201364 -0.18700983 6.06201364 -3.3125 6.3125 C-3.786875 6.8075 -4.26125 7.3025 -4.75 7.8125 C-6.3125 9.3125 -6.3125 9.3125 -10 9.5 C-11.093125 9.438125 -12.18625 9.37625 -13.3125 9.3125 C-12.8172783 5.64785945 -12.2916794 3.60417646 -9.3125 1.3125 C-6.03843622 0.22114541 -3.44585827 0.07551477 0 0 Z " fill="#101010" transform="translate(511.3125,183.6875)"/>
<path d="M0 0 C9.57 0 19.14 0 29 0 C29 2.31 29 4.62 29 7 C22.07 7 15.14 7 8 7 C8 10.3 8 13.6 8 17 C14.27 17 20.54 17 27 17 C27 19.31 27 21.62 27 24 C21.06 24 15.12 24 9 24 C9 29.61 9 35.22 9 41 C6.03 41 3.06 41 0 41 C0 27.47 0 13.94 0 0 Z " fill="#111111" transform="translate(349,173)"/>
<path d="M0 0 C-0.20625 0.61875 -0.4125 1.2375 -0.625 1.875 C-0.810625 2.926875 -0.810625 2.926875 -1 4 C-0.34 4.66 0.32 5.32 1 6 C-4.75 6.125 -4.75 6.125 -7 5 C-7 5.99 -7 6.98 -7 8 C-9.97 8.66 -12.94 9.32 -16 10 C-15.01 10.66 -14.02 11.32 -13 12 C-12.34 12.66 -11.68 13.32 -11 14 C-11.6290625 14.21914062 -12.258125 14.43828125 -12.90625 14.6640625 C-27.14214985 19.93820612 -36.67946212 30.84186278 -44 44 C-46.42752483 49.54998813 -47.45392773 54.99320504 -48 61 C-47.34 61.33 -46.68 61.66 -46 62 C-47.26457031 62.52400391 -47.26457031 62.52400391 -48.5546875 63.05859375 C-50.19824219 63.74115234 -50.19824219 63.74115234 -51.875 64.4375 C-52.96554687 64.88996094 -54.05609375 65.34242188 -55.1796875 65.80859375 C-56.80558624 66.49543463 -58.42131774 67.21065887 -60 68 C-58.77501148 49.62517221 -49.56457699 36.71249498 -37 24 C-36.10667969 23.0821875 -35.21335937 22.164375 -34.29296875 21.21875 C-26.19414809 13.33514276 -11.76786034 0 0 0 Z " fill="#2B9F59" transform="translate(375,113)"/>
<path d="M0 0 C2.64 0 5.28 0 8 0 C8.01981934 0.65597168 8.03963867 1.31194336 8.06005859 1.98779297 C8.15512507 4.95061069 8.26487752 7.91270532 8.375 10.875 C8.4059375 11.90753906 8.436875 12.94007813 8.46875 14.00390625 C8.50742187 14.99003906 8.54609375 15.97617188 8.5859375 16.9921875 C8.6173584 17.90339355 8.6487793 18.81459961 8.68115234 19.75341797 C8.79882511 22.19931186 8.79882511 22.19931186 11 24 C14.58343976 24.16677282 14.58343976 24.16677282 18 24 C18.83371359 21.04491553 19.17889534 18.29890387 19.31640625 15.234375 C19.35830078 14.34492188 19.40019531 13.45546875 19.44335938 12.5390625 C19.48267578 11.61867187 19.52199219 10.69828125 19.5625 9.75 C19.60568359 8.81414062 19.64886719 7.87828125 19.69335938 6.9140625 C19.7991805 4.60951359 19.90126557 2.30486161 20 0 C22.64 0 25.28 0 28 0 C28 9.9 28 19.8 28 30 C25.69 30 23.38 30 21 30 C21 29.01 21 28.02 21 27 C20.21625 27.495 19.4325 27.99 18.625 28.5 C13.9803927 30.42190647 9.96665458 30.79227937 5 30 C2.42362529 28.11484777 1.40332572 26.80665143 0 24 C-0.08471364 22.18658158 -0.10721083 20.37005839 -0.09765625 18.5546875 C-0.09443359 17.47832031 -0.09121094 16.40195313 -0.08789062 15.29296875 C-0.07951172 14.16503906 -0.07113281 13.03710938 -0.0625 11.875 C-0.05798828 10.73933594 -0.05347656 9.60367188 -0.04882812 8.43359375 C-0.03701615 5.62234362 -0.02054507 2.8111977 0 0 Z " fill="#0F0F0F" transform="translate(439,184)"/>
<path d="M0 0 C-0.33 0.33 -0.66 0.66 -1 1 C2.08809695 2.76462683 3.23312136 3 7 3 C7 4.98 7 6.96 7 9 C8.98 8.67 10.96 8.34 13 8 C9.71195019 10.91227269 7.40114397 12.49701212 3 13 C3.66 10.36 4.32 7.72 5 5 C2.54104382 5.30811738 0.08291693 5.62128988 -2.375 5.9375 C-3.07367188 6.02451172 -3.77234375 6.11152344 -4.4921875 6.20117188 C-8.36783575 6.66318128 -8.36783575 6.66318128 -12 8 C-12.6496875 9.1446875 -12.6496875 9.1446875 -13.3125 10.3125 C-15.80221525 14.27760206 -18.56447066 16.52149022 -23 18 C-27.90373192 18.39472765 -32.4657624 18.55232554 -37.125 16.875 C-39.60838078 14.39161922 -39.77063276 12.44050866 -40 9 C-38.741875 8.79375 -37.48375 8.5875 -36.1875 8.375 C-29.11798171 6.97730154 -22.33242815 4.65680546 -15.48828125 2.4375 C-3.53224712 -1.41289885 -3.53224712 -1.41289885 0 0 Z " fill="#DDEEE4" transform="translate(277,153)"/>
<path d="M0 0 C0 3.63 0 7.26 0 11 C1.65 11 3.3 11 5 11 C5 12.65 5 14.3 5 16 C3.35 16 1.7 16 0 16 C0 22.27 0 28.54 0 35 C2.97 34.505 2.97 34.505 6 34 C6 35.98 6 37.96 6 40 C4.22992286 40.08114106 2.45877902 40.13925505 0.6875 40.1875 C-0.29863281 40.22230469 -1.28476562 40.25710937 -2.30078125 40.29296875 C-5 40 -5 40 -6.65039062 38.78710938 C-8.42659923 36.43511101 -8.34616273 35.03895001 -8.29296875 32.11328125 C-8.28330078 31.17548828 -8.27363281 30.23769531 -8.26367188 29.27148438 C-8.23853516 28.29501953 -8.21339844 27.31855469 -8.1875 26.3125 C-8.16719727 24.83040039 -8.16719727 24.83040039 -8.14648438 23.31835938 C-8.11112203 20.87835769 -8.06177033 18.43945281 -8 16 C-9.32 16 -10.64 16 -12 16 C-12 14.35 -12 12.7 -12 11 C-11.01 10.67 -10.02 10.34 -9 10 C-8.71125 8.88625 -8.4225 7.7725 -8.125 6.625 C-7 3 -7 3 -4.5 1.0625 C-2 0 -2 0 0 0 Z " fill="#101010" transform="translate(428,174)"/>
<path d="M0 0 C0.66 0.33 1.32 0.66 2 1 C1.67 3.31 1.34 5.62 1 8 C-0.27875 8.0825 -1.5575 8.165 -2.875 8.25 C-5.04634555 8.30367785 -5.04634555 8.30367785 -7 9 C-9.86342186 12.52421152 -9.45239271 17.41324172 -9.625 21.75 C-9.66367187 22.54277344 -9.70234375 23.33554688 -9.7421875 24.15234375 C-9.836108 26.10119416 -9.91912822 28.05056451 -10 30 C-12.31 30 -14.62 30 -17 30 C-17 20.43 -17 10.86 -17 1 C-14.69 1 -12.38 1 -10 1 C-10 1.66 -10 2.32 -10 3 C-9.46375 2.505 -8.9275 2.01 -8.375 1.5 C-5.37505704 -0.39470082 -3.48955396 -0.30343947 0 0 Z " fill="#040404" transform="translate(493,184)"/>
<path d="M0 0 C2.18377316 3.27565974 3.29747469 6.51602927 4.50390625 10.21875 C4.7433194 10.94105301 4.98273254 11.66335602 5.22940063 12.407547 C6.01147089 14.77027993 6.78714851 17.13505456 7.5625 19.5 C8.09963095 21.12927747 8.63714993 22.75842707 9.17504883 24.38745117 C9.99170008 26.86083101 10.80801195 29.33431653 11.62254333 31.80839539 C13.30964553 36.92900114 15.02163448 42.04037265 16.7578125 47.14453125 C17.17087646 48.36398438 17.58394043 49.5834375 18.00952148 50.83984375 C18.77547189 53.09784967 19.54559209 55.35444691 20.32055664 57.609375 C22.05874416 62.75956025 23.4878997 67.58090876 24 73 C22.12719727 72.83032227 22.12719727 72.83032227 20 72 C18.85913086 69.71850586 18.85913086 69.71850586 17.96484375 66.71484375 C17.63033203 65.62623047 17.29582031 64.53761719 16.95117188 63.41601562 C16.61666016 62.26810547 16.28214844 61.12019531 15.9375 59.9375 C15.2608258 57.69609726 14.58247533 55.45519981 13.90234375 53.21484375 C13.57943359 52.14210205 13.25652344 51.06936035 12.92382812 49.96411133 C11.76255099 46.23814259 10.426752 42.63245495 9 39 C8.40058594 37.46666016 8.40058594 37.46666016 7.7890625 35.90234375 C7.40492188 34.92394531 7.02078125 33.94554687 6.625 32.9375 C4.73962622 28.02981491 2.9438044 23.10140478 1.25 18.125 C0.63898438 16.33449219 0.63898438 16.33449219 0.015625 14.5078125 C-2.58576874 5.52299873 -2.58576874 5.52299873 -1.0625 1.5625 C-0.711875 1.046875 -0.36125 0.53125 0 0 Z " fill="#191919" transform="translate(289,90)"/>
<path d="M0 0 C2.46319871 2.10096361 3.0358267 3.81482034 4.125 6.8125 C2.06537148 7.48798578 0.00215678 8.15254312 -2.0625 8.8125 C-3.21105469 9.18375 -4.35960937 9.555 -5.54296875 9.9375 C-8.51820812 10.71880553 -10.82783896 10.99613306 -13.875 10.8125 C-13.875 11.4725 -13.875 12.1325 -13.875 12.8125 C-18.33 13.3075 -18.33 13.3075 -22.875 13.8125 C-23.3125 10.6875 -23.3125 10.6875 -22.875 6.8125 C-17.21799001 -0.26675262 -8.54384412 -3.52897909 0 0 Z " fill="#EDF4F0" transform="translate(256.875,141.1875)"/>
<path d="M0 0 C2.64 0 5.28 0 8 0 C8 9.57 8 19.14 8 29 C6.02 29 4.04 29 2 29 C1.67 28.01 1.34 27.02 1 26 C0.34 25.34 -0.32 24.68 -1 24 C-0.67 23.67 -0.34 23.34 0 23 C0.08713831 21.29227642 0.10700007 19.58101351 0.09765625 17.87109375 C0.09443359 16.83662109 0.09121094 15.80214844 0.08789062 14.73632812 C0.07951172 13.64771484 0.07113281 12.55910156 0.0625 11.4375 C0.05798828 10.34501953 0.05347656 9.25253906 0.04882812 8.12695312 C0.03699826 5.41791505 0.02051543 2.70898401 0 0 Z " fill="#0C0C0C" transform="translate(459,184)"/>
<path d="M0 0 C0.33 1.32 0.66 2.64 1 4 C0.01 4.33 -0.98 4.66 -2 5 C-3.20882096 7.00016466 -3.20882096 7.00016466 -4 9 C-2.68 9 -1.36 9 0 9 C0.25 11.3125 0.25 11.3125 0 14 C-2.20035016 16.36333906 -3.46590679 16.95031691 -6.6875 17.25 C-9 17 -9 17 -10 16 C-10.33 16.66 -10.66 17.32 -11 18 C-14 20 -14 20 -17 20 C-19.48038907 16.2794164 -19.46337203 14.40203429 -19 10 C-16.10604662 6.2811668 -13.46875254 5.2606883 -8.9375 4.25 C-7.89464844 4.00765625 -6.85179687 3.7653125 -5.77734375 3.515625 C-3 3 -3 3 0 3 C0 2.01 0 1.02 0 0 Z " fill="#171717" transform="translate(516,192)"/>
<path d="M0 0 C-0.33 0.66 -0.66 1.32 -1 2 C-3.31884766 2.45483398 -3.31884766 2.45483398 -6.4140625 2.74609375 C-8.12819336 2.9164917 -8.12819336 2.9164917 -9.87695312 3.09033203 C-11.11380859 3.20489746 -12.35066406 3.31946289 -13.625 3.4375 C-16.19033052 3.69173672 -18.75543319 3.94828209 -21.3203125 4.20703125 C-22.61098633 4.33674316 -23.90166016 4.46645508 -25.23144531 4.60009766 C-30.66810349 5.17701176 -36.08286955 5.8895813 -41.5 6.625 C-52.35741917 8.07770771 -63.02953634 9.21843844 -74 9 C-74 8.34 -74 7.68 -74 7 C-72.20369141 6.81824219 -72.20369141 6.81824219 -70.37109375 6.6328125 C-58.17954374 5.38433334 -46.00949079 4.08752474 -33.9375 1.9375 C-22.68032377 0.02362934 -11.38836756 -0.15576795 0 0 Z " fill="#E5E4E4" transform="translate(282,121)"/>
<path d="M0 0 C12.61868531 -0.43955763 24.83834118 -0.24606561 37.3125 1.875 C38.33730469 2.04870117 39.36210937 2.22240234 40.41796875 2.40136719 C47.56742456 3.71161637 47.56742456 3.71161637 51 6 C35.49 5.67 19.98 5.34 4 5 C6 3 6 3 11 2 C7.37 1.67 3.74 1.34 0 1 C0 0.67 0 0.34 0 0 Z " fill="#CBE0D1" transform="translate(371,125)"/>
<path d="M0 0 C0 0.66 0 1.32 0 2 C4.455 1.505 4.455 1.505 9 1 C9 1.66 9 2.32 9 3 C7.35 3.66 5.7 4.32 4 5 C4.33 5.66 4.66 6.32 5 7 C1.66666667 8.66666667 -1.66666667 10.33333333 -5 12 C-5 11.01 -5 10.02 -5 9 C-4.34 9 -3.68 9 -3 9 C-3 7.35 -3 5.7 -3 4 C-2.34 4 -1.68 4 -1 4 C-1 3.01 -1 2.02 -1 1 C-3.31 1.66 -5.62 2.32 -8 3 C-8 3.66 -8 4.32 -8 5 C-7.01 5.33 -6.02 5.66 -5 6 C-11.75 8.125 -11.75 8.125 -14 7 C-14.33 7.99 -14.66 8.98 -15 10 C-16.32 10 -17.64 10 -19 10 C-19 10.66 -19 11.32 -19 12 C-19.66 12 -20.32 12 -21 12 C-20.34 10.68 -19.68 9.36 -19 8 C-18.34 8 -17.68 8 -17 8 C-17 7.34 -17 6.68 -17 6 C-15.13671875 4.52734375 -15.13671875 4.52734375 -12.6875 2.9375 C-11.88699219 2.41027344 -11.08648437 1.88304687 -10.26171875 1.33984375 C-6.4017573 -0.94680008 -4.26603112 -1.03768325 0 0 Z " fill="#2E9D59" transform="translate(241,134)"/>
<path d="M0 0 C1.78615723 -0.0009668 1.78615723 -0.0009668 3.60839844 -0.00195312 C8.45458939 0.0288519 12.9466283 0.10499826 17.6875 1.1875 C17.6875 1.5175 17.6875 1.8475 17.6875 2.1875 C11.51701684 2.47615962 5.34636627 2.76082616 -0.82446289 3.04199219 C-2.91826193 3.13793316 -5.01201359 3.23491452 -7.10571289 3.33300781 C-29.41388656 4.37678963 -29.41388656 4.37678963 -40.3125 4.1875 C-40.6425 3.5275 -40.9725 2.8675 -41.3125 2.1875 C-27.53868081 0.88560055 -13.84081639 -0.00727889 0 0 Z " fill="#DFDFDF" transform="translate(259.3125,107.8125)"/>
<path d="M0 0 C0.495 0.99 0.495 0.99 1 2 C-0.45351015 3.98287496 -1.91247287 5.96129387 -3.375 7.9375 C-3.7875 8.50146484 -4.2 9.06542969 -4.625 9.64648438 C-7.7734375 13.88671875 -7.7734375 13.88671875 -10 15 C-10.66 14.34 -11.32 13.68 -12 13 C-12.66 12.67 -13.32 12.34 -14 12 C-14 10.68 -14 9.36 -14 8 C-20.6 8 -27.2 8 -34 8 C-34 7.34 -34 6.68 -34 6 C-33.410979 6.01571045 -32.82195801 6.0314209 -32.21508789 6.04760742 C-29.49765973 6.110692 -26.78038639 6.14921991 -24.0625 6.1875 C-23.13630859 6.21263672 -22.21011719 6.23777344 -21.25585938 6.26367188 C-13.55161086 6.34476923 -5.91861786 5.40395544 0 0 Z " fill="#3CA164" transform="translate(526,114)"/>
<path d="M0 0 C1.64826111 2.96687001 2.44271087 5.65626525 3 9 C4.98 9 6.96 9 9 9 C9 9.33 9 9.66 9 10 C6.69 10 4.38 10 2 10 C2 9.01 2 8.02 2 7 C1.21625 7.495 0.4325 7.99 -0.375 8.5 C-5.00426847 10.41555937 -9.04717526 10.46321382 -14 10 C-14.66 9.67 -15.32 9.34 -16 9 C-15.8125 6.625 -15.8125 6.625 -15 4 C-12.4375 2.6875 -12.4375 2.6875 -10 2 C-9.34 2.66 -8.68 3.32 -8 4 C-4.41656024 4.16677282 -4.41656024 4.16677282 -1 4 C-0.67 2.68 -0.34 1.36 0 0 Z " fill="#101010" transform="translate(458,204)"/>
<path d="M0 0 C-0.33 0.33 -0.66 0.66 -1 1 C2.08809695 2.76462683 3.23312136 3 7 3 C7 4.98 7 6.96 7 9 C8.98 8.67 10.96 8.34 13 8 C9.71195019 10.91227269 7.40114397 12.49701212 3 13 C3.66 10.36 4.32 7.72 5 5 C4.04287109 5.01740234 4.04287109 5.01740234 3.06640625 5.03515625 C2.24011719 5.04417969 1.41382813 5.05320313 0.5625 5.0625 C-0.67306641 5.07990234 -0.67306641 5.07990234 -1.93359375 5.09765625 C-4 5 -4 5 -5 4 C-11.00032923 3.19908078 -15.01541924 4.21878897 -20.203125 7.17578125 C-22 8 -22 8 -25 7.75 C-25.66 7.5025 -26.32 7.255 -27 7 C-23.19383901 4.86338221 -19.09135315 3.69748966 -14.9375 2.4375 C-13.50906289 1.99886622 -12.08067554 1.56007037 -10.65234375 1.12109375 C-8.84443359 0.56615234 -8.84443359 0.56615234 -7 0 C-3.86650268 -1.04449911 -3.01031744 -0.93423645 0 0 Z " fill="#E1EEE7" transform="translate(277,153)"/>
<path d="M0 0 C1.33332095 2.6666419 0.67102033 4.16680303 0 7 C-0.66 7 -1.32 7 -2 7 C-1.7215625 8.175625 -1.7215625 8.175625 -1.4375 9.375 C-1 12 -1 12 -2 14 C-1.34 14 -0.68 14 0 14 C0 14.66 0 15.32 0 16 C-0.66 16 -1.32 16 -2 16 C-2 16.99 -2 17.98 -2 19 C-1.34 19 -0.68 19 0 19 C0 18.34 0 17.68 0 17 C0.99 17 1.98 17 3 17 C2.938125 15.4221875 2.938125 15.4221875 2.875 13.8125 C2.99147875 10.25989827 3.47208068 8.15133359 5 5 C6.53166168 9.08443115 5.63081652 12.79455657 5 17 C5.66 17.33 6.32 17.66 7 18 C6.15695312 18.34933594 5.31390625 18.69867188 4.4453125 19.05859375 C2.80175781 19.74115234 2.80175781 19.74115234 1.125 20.4375 C-0.51082031 21.11619141 -0.51082031 21.11619141 -2.1796875 21.80859375 C-3.80558624 22.49543463 -5.42131774 23.21065887 -7 24 C-6.44052821 15.60792315 -4.72605458 7.08908187 0 0 Z " fill="#47A06C" transform="translate(322,157)"/>
<path d="M0 0 C-15.56036446 9.77904328 -15.56036446 9.77904328 -24 12 C-24 12.66 -24 13.32 -24 14 C-26.28703308 15.19725883 -28.57884862 16.38297018 -30.875 17.5625 C-31.52597656 17.90474609 -32.17695313 18.24699219 -32.84765625 18.59960938 C-34.53529857 19.46082891 -36.26579593 20.23686703 -38 21 C-38.66 20.67 -39.32 20.34 -40 20 C-35.3575305 15.59560586 -31.14961761 13.68089548 -25 12 C-25 11.34 -25 10.68 -25 10 C-13.0859375 4.04296875 -13.0859375 4.04296875 -10.98339844 3.00146484 C-9.19114893 2.09651562 -7.42563839 1.1390786 -5.6640625 0.17578125 C-3 -1 -3 -1 0 0 Z " fill="#E0E0DF" transform="translate(296,172)"/>
<path d="M0 0 C1.65 0 3.3 0 5 0 C-1.67796978 7.56300193 -13.26528678 10.00264843 -23 11 C-32.79627474 11.60186263 -32.79627474 11.60186263 -38 9 C-31.07 9 -24.14 9 -17 9 C-16.67 7.68 -16.34 6.36 -16 5 C-12.7 4.67 -9.4 4.34 -6 4 C-6 3.67 -6 3.34 -6 3 C-4.02 3 -2.04 3 0 3 C0 2.01 0 1.02 0 0 Z " fill="#3AA063" transform="translate(268,171)"/>
<path d="M0 0 C0.99 0.66 1.98 1.32 3 2 C-2.61702041 4.74319602 -8.03827245 5.86236642 -14.20703125 6.86328125 C-17.32010225 7.7547813 -17.32010225 7.7547813 -18.38671875 11.10546875 C-18.58910156 12.06066406 -18.79148438 13.01585937 -19 14 C-17.02 14.495 -17.02 14.495 -15 15 C-16.65 15 -18.3 15 -20 15 C-20.4375 11.875 -20.4375 11.875 -20 8 C-14.64553497 1.29935591 -8.25295986 -0.53244902 0 0 Z " fill="#C9DECF" transform="translate(254,140)"/>
<path d="M0 0 C0 0.33 0 0.66 0 1 C-4.08868355 1.43386971 -8.17803047 1.86080343 -12.26806641 2.28173828 C-13.65497646 2.42541123 -15.04170268 2.57087184 -16.42822266 2.71826172 C-24.2970123 3.55343289 -32.07782523 4.25502083 -40 4 C-40 3.34 -40 2.68 -40 2 C-39.44538086 1.94465088 -38.89076172 1.88930176 -38.31933594 1.83227539 C-35.7959083 1.57871893 -33.27296117 1.32065495 -30.75 1.0625 C-29.44095703 0.93198242 -29.44095703 0.93198242 -28.10546875 0.79882812 C-27.26113281 0.71181641 -26.41679687 0.62480469 -25.546875 0.53515625 C-24.77182617 0.456604 -23.99677734 0.37805176 -23.19824219 0.29711914 C-15.13727849 -0.79241805 -8.16100396 -1.41930504 0 0 Z " fill="#E6E6E5" transform="translate(248,126)"/>
<path d="M0 0 C0 0.99 0 1.98 0 3 C-3.3 3.66 -6.6 4.32 -10 5 C-10.33 5.99 -10.66 6.98 -11 8 C-15.34464536 7.39174965 -19.67551867 6.73832608 -24 6 C-24 5.34 -24 4.68 -24 4 C-23.175 4.0825 -22.35 4.165 -21.5 4.25 C-18.09768587 4.00697756 -17.06211801 3.62325511 -14.25 2 C-9.55640312 -0.58329751 -5.23667518 -0.3863121 0 0 Z " fill="#E6F6EE" transform="translate(273,156)"/>
<path d="M0 0 C0.66 0.33 1.32 0.66 2 1 C1.67 3.31 1.34 5.62 1 8 C-6.38461538 8.49230769 -6.38461538 8.49230769 -9.5 6 C-9.995 5.34 -10.49 4.68 -11 4 C-10.67 3.01 -10.34 2.02 -10 1 C-10 1.66 -10 2.32 -10 3 C-9.46375 2.505 -8.9275 2.01 -8.375 1.5 C-5.37505704 -0.39470082 -3.48955396 -0.30343947 0 0 Z " fill="#121212" transform="translate(493,184)"/>
<path d="M0 0 C-1.83169318 0.48539869 -3.66546059 0.96297186 -5.5 1.4375 C-6.5209375 1.70433594 -7.541875 1.97117188 -8.59375 2.24609375 C-17.09521283 4.12772486 -25.32203306 4.12206366 -34 4.0625 C-35.25167969 4.05798828 -36.50335938 4.05347656 -37.79296875 4.04882812 C-40.86202941 4.03711415 -43.93098907 4.02071073 -47 4 C-47 3.67 -47 3.34 -47 3 C-38.31320899 2.28038418 -29.71700174 1.85631316 -21 2 C-21 1.34 -21 0.68 -21 0 C-19.68 0 -18.36 0 -17 0 C-17 0.66 -17 1.32 -17 2 C-16.10796875 1.77183594 -15.2159375 1.54367188 -14.296875 1.30859375 C-13.12640625 1.02113281 -11.9559375 0.73367187 -10.75 0.4375 C-9.58984375 0.14746094 -8.4296875 -0.14257812 -7.234375 -0.44140625 C-4.27909017 -0.95179964 -2.75565899 -1.02996165 0 0 Z " fill="#429D68" transform="translate(457,161)"/>
<path d="M0 0 C1.32 0.33 2.64 0.66 4 1 C3.28028381 4.75345656 1.66887798 7.86091969 -0.0625 11.25 C-0.61035156 12.32765625 -1.15820312 13.4053125 -1.72265625 14.515625 C-2.35494141 15.74539062 -2.35494141 15.74539062 -3 17 C-3.33 17 -3.66 17 -4 17 C-4 14.69 -4 12.38 -4 10 C-5.65 10.33 -7.3 10.66 -9 11 C-7.63016497 7.83884224 -7.0109362 7.0072908 -4 5 C-3.01 5 -2.02 5 -1 5 C-0.67 3.35 -0.34 1.7 0 0 Z " fill="#31A060" transform="translate(332,145)"/>
<path d="M0 0 C-0.33 0.99 -0.66 1.98 -1 3 C-4.0625 4.1875 -4.0625 4.1875 -7 5 C-6.67 7.31 -6.34 9.62 -6 12 C-6.99 12.495 -6.99 12.495 -8 13 C-10.5 10.75 -10.5 10.75 -13 8 C-13 6.68 -13 5.36 -13 4 C-11.58774074 3.32404685 -10.16997095 2.65959941 -8.75 2 C-7.56664062 1.443125 -7.56664062 1.443125 -6.359375 0.875 C-4 0 -4 0 0 0 Z " fill="#2F9F5E" transform="translate(370,132)"/>
<path d="M0 0 C-0.48347826 5.56 -0.48347826 5.56 -2.6875 7.4375 C-5.69912251 8.17005683 -8.00507424 7.68066494 -11 7 C-11 5.35 -11 3.7 -11 2 C-7.36576791 -0.32590854 -4.22911669 -0.16265833 0 0 Z " fill="#E5E5E5" transform="translate(403,201)"/>
<path d="M0 0 C0.25 2.3125 0.25 2.3125 0 5 C-2.16382968 7.32411336 -3.4694524 7.93683957 -6.625 8.3125 C-9 8 -9 8 -11 6 C-11 4.68 -11 3.36 -11 2 C-7.17679443 0.57741188 -4.08718695 -0.24042276 0 0 Z " fill="#E5E5E5" transform="translate(516,201)"/>
<path d="M0 0 C-0.20625 0.61875 -0.4125 1.2375 -0.625 1.875 C-0.74875 2.57625 -0.8725 3.2775 -1 4 C-0.34 4.66 0.32 5.32 1 6 C-4.75 6.125 -4.75 6.125 -7 5 C-7 5.99 -7 6.98 -7 8 C-9.31 8 -11.62 8 -14 8 C-12.79240205 4.37720616 -11.94596794 4.08839169 -8.6875 2.3125 C-7.90761719 1.87550781 -7.12773437 1.43851562 -6.32421875 0.98828125 C-4 0 -4 0 0 0 Z " fill="#2EA05F" transform="translate(375,113)"/>
<path d="M0 0 C0.66 0.33 1.32 0.66 2 1 C1.360625 1.268125 0.72125 1.53625 0.0625 1.8125 C-2.33131686 2.88667752 -2.33131686 2.88667752 -3 6 C-2.01 6.33 -1.02 6.66 0 7 C-6.75 9.125 -6.75 9.125 -9 8 C-9.33 8.99 -9.66 9.98 -10 11 C-11.32 11 -12.64 11 -14 11 C-14 11.66 -14 12.32 -14 13 C-14.66 13 -15.32 13 -16 13 C-15.34 11.68 -14.68 10.36 -14 9 C-13.34 9 -12.68 9 -12 9 C-12 8.34 -12 7.68 -12 7 C-10.13671875 5.52734375 -10.13671875 5.52734375 -7.6875 3.9375 C-6.88699219 3.41027344 -6.08648437 2.88304687 -5.26171875 2.33984375 C-3 1 -3 1 0 0 Z " fill="#2D9E5D" transform="translate(236,133)"/>
<path d="M0 0 C3.3 0.33 6.6 0.66 10 1 C10 2.32 10 3.64 10 5 C7.47524538 6.26237731 5.68799534 6.09856404 2.875 6.0625 C1.96492188 6.05347656 1.05484375 6.04445312 0.1171875 6.03515625 C-0.58148438 6.02355469 -1.28015625 6.01195312 -2 6 C-2 5.01 -2 4.02 -2 3 C-1.34 3 -0.68 3 0 3 C0 2.01 0 1.02 0 0 Z " fill="#0A0A0A" transform="translate(390,208)"/>
<path d="M0 0 C0.33 0.66 0.66 1.32 1 2 C0.67 2.99 0.34 3.98 0 5 C0.99 5.33 1.98 5.66 3 6 C1.35 7.65 -0.3 9.3 -2 11 C-2.33 10.34 -2.66 9.68 -3 9 C-3.99 9 -4.98 9 -6 9 C-6.061875 9.61875 -6.12375 10.2375 -6.1875 10.875 C-7 13 -7 13 -9.5625 14.25 C-10.366875 14.4975 -11.17125 14.745 -12 15 C-10.42921185 11.31766057 -8.13566869 8.74453885 -5.4375 5.8125 C-4.63183594 4.93207031 -3.82617188 4.05164063 -2.99609375 3.14453125 C-1 1 -1 1 0 0 Z " fill="#3BA063" transform="translate(338,137)"/>
<path d="M0 0 C1.65 0.33 3.3 0.66 5 1 C-0.96583144 8.66742597 -0.96583144 8.66742597 -6 10 C-6 10.66 -6 11.32 -6 12 C-6.99 12.33 -7.98 12.66 -9 13 C-9 12.01 -9 11.02 -9 10 C-8.34 10 -7.68 10 -7 10 C-7 9.01 -7 8.02 -7 7 C-6.34 6.34 -5.68 5.68 -5 5 C-4.67 4.34 -4.34 3.68 -4 3 C-3.01 3 -2.02 3 -1 3 C-0.67 2.01 -0.34 1.02 0 0 Z " fill="#309E5D" transform="translate(511,128)"/>
<path d="M0 0 C-0.33 0.99 -0.66 1.98 -1 3 C-1.33 2.34 -1.66 1.68 -2 1 C-3.65 1 -5.3 1 -7 1 C-6.67 2.32 -6.34 3.64 -6 5 C-9.63 5 -13.26 5 -17 5 C-17.33 4.01 -17.66 3.02 -18 2 C-11.84629161 0.176679 -6.40353322 -0.2361959 0 0 Z " fill="#1F9C4F" transform="translate(258,131)"/>
<path d="M0 0 C0.33 0 0.66 0 1 0 C1.13277344 0.95261719 1.26554688 1.90523437 1.40234375 2.88671875 C1.66724609 4.76810547 1.66724609 4.76810547 1.9375 6.6875 C2.11152344 7.92886719 2.28554687 9.17023438 2.46484375 10.44921875 C2.89822897 13.32474548 3.39649282 16.15644813 4 19 C4.99 19.33 5.98 19.66 7 20 C7.33 20.66 7.66 21.32 8 22 C8.99 22.33 9.98 22.66 11 23 C11 23.66 11 24.32 11 25 C9.35 24.67 7.7 24.34 6 24 C5.67 23.01 5.34 22.02 5 21 C4.16082031 20.45859375 3.32164062 19.9171875 2.45703125 19.359375 C-0.25075957 16.75920703 -0.36057846 16.41616209 -0.48828125 12.890625 C-0.45521221 11.34299393 -0.39581107 9.79574084 -0.3125 8.25 C-0.28994141 7.45722656 -0.26738281 6.66445312 -0.24414062 5.84765625 C-0.18540471 3.8976238 -0.09572654 1.94856688 0 0 Z " fill="#C4E4D0" transform="translate(215,154)"/>
<path d="M0 0 C0.66 0.33 1.32 0.66 2 1 C2 2.32 2 3.64 2 5 C0.35 5.33 -1.3 5.66 -3 6 C-3.33 7.32 -3.66 8.64 -4 10 C-8.29 9.67 -12.58 9.34 -17 9 C-17 8.67 -17 8.34 -17 8 C-14.5636811 7.32873871 -12.12611117 6.66283646 -9.6875 6 C-8.99720703 5.80921875 -8.30691406 5.6184375 -7.59570312 5.421875 C-4.64212051 4.62283816 -2.07440781 4 1 4 C0.67 2.68 0.34 1.36 0 0 Z " fill="#44A86F" transform="translate(260,144)"/>
<path d="M0 0 C0.98608749 0.00212242 0.98608749 0.00212242 1.99209595 0.00428772 C4.07029981 0.00983863 6.14839177 0.0223816 8.2265625 0.03515625 C9.64452968 0.04017761 11.06249857 0.0447394 12.48046875 0.04882812 C15.93753572 0.05979188 19.39453817 0.07702204 22.8515625 0.09765625 C22.8515625 0.42765625 22.8515625 0.75765625 22.8515625 1.09765625 C22.1810083 1.1227124 21.5104541 1.14776855 20.81958008 1.17358398 C17.7675666 1.28996426 14.71582992 1.41249973 11.6640625 1.53515625 C10.60896484 1.57447266 9.55386719 1.61378906 8.46679688 1.65429688 C7.44521484 1.69619141 6.42363281 1.73808594 5.37109375 1.78125 C4.43370361 1.81790771 3.49631348 1.85456543 2.53051758 1.89233398 C-0.09987723 2.09393446 -2.56806102 2.5662085 -5.1484375 3.09765625 C-7.86345646 2.95077041 -10.4539752 2.50867592 -13.1484375 2.09765625 C-13.1484375 1.76765625 -13.1484375 1.43765625 -13.1484375 1.09765625 C-8.70696181 0.23849529 -4.52073926 -0.0193194 0 0 Z " fill="#45A26A" transform="translate(407.1484375,103.90234375)"/>
<path d="M0 0 C1.90318884 2.85478326 2.4619099 4.41941308 3.125 7.6875 C3.29257812 8.49574219 3.46015625 9.30398437 3.6328125 10.13671875 C3.75398438 10.75160156 3.87515625 11.36648437 4 12 C2.02 12.99 2.02 12.99 0 14 C-1.59892636 10.5023486 -2.39496414 7.85090034 -2 4 C-1 1.6875 -1 1.6875 0 0 Z " fill="#202020" transform="translate(289,90)"/>
<path d="M0 0 C2.31 0.33 4.62 0.66 7 1 C7 1.66 7 2.32 7 3 C7.99 3.33 8.98 3.66 10 4 C8.68 4 7.36 4 6 4 C6 4.66 6 5.32 6 6 C3.03 6 0.06 6 -3 6 C-3.33 5.34 -3.66 4.68 -4 4 C-2.02 3.67 -0.04 3.34 2 3 C1.34 2.67 0.68 2.34 0 2 C0 1.34 0 0.68 0 0 Z " fill="#F8F4F8" transform="translate(248,164)"/>
<path d="M0 0 C-6.23352988 4.15568659 -13.76791678 3.1053216 -21 3 C-20.67 2.34 -20.34 1.68 -20 1 C-13.36383412 -0.25210677 -6.7326463 -0.10098969 0 0 Z " fill="#DCDBDC" transform="translate(262,123)"/>
<path d="M0 0 C0 1.98 0 3.96 0 6 C1.98 5.67 3.96 5.34 6 5 C2.71195019 7.91227269 0.40114397 9.49701212 -4 10 C-3.34 7.36 -2.68 4.72 -2 2 C-3.32 1.67 -4.64 1.34 -6 1 C-4 0 -4 0 0 0 Z " fill="#C0DBCA" transform="translate(284,156)"/>
<path d="M0 0 C2.31 0.33 4.62 0.66 7 1 C7 1.33 7 1.66 7 2 C9.97 2.495 9.97 2.495 13 3 C12.67 3.99 12.34 4.98 12 6 C12.66 6.33 13.32 6.66 14 7 C12.328125 7.7109375 12.328125 7.7109375 10 8 C7.421875 6.6015625 7.421875 6.6015625 4.75 4.625 C3.85796875 3.97789062 2.9659375 3.33078125 2.046875 2.6640625 C1.37140625 2.11492187 0.6959375 1.56578125 0 1 C0 0.67 0 0.34 0 0 Z " fill="#3CA164" transform="translate(363,145)"/>
<path d="M0 0 C0.33 0.66 0.66 1.32 1 2 C-1.64 5.63 -4.28 9.26 -7 13 C-8 9 -8 9 -8 5 C-6.25 3.515625 -6.25 3.515625 -4 2.25 C-3.2575 1.82203125 -2.515 1.3940625 -1.75 0.953125 C-1.1725 0.63859375 -0.595 0.3240625 0 0 Z " fill="#449F6B" transform="translate(526,114)"/>
<path d="M0 0 C0 1.32 0 2.64 0 4 C-5.41538462 5.23076923 -5.41538462 5.23076923 -8.375 4.0625 C-8.91125 3.711875 -9.4475 3.36125 -10 3 C-7.29536552 -0.8183075 -4.37912428 -0.24787496 0 0 Z " fill="#1F9D4E" transform="translate(368,121)"/>
<path d="M0 0 C-3.32307692 5.78461538 -3.32307692 5.78461538 -6.75 6.875 C-7.4925 6.91625 -8.235 6.9575 -9 7 C-8.6875 4.625 -8.6875 4.625 -8 2 C-4.77208445 -0.1519437 -3.71599191 -0.20086443 0 0 Z " fill="#289F59" transform="translate(347,135)"/>
<path d="M0 0 C1.32 0.33 2.64 0.66 4 1 C6.21538462 7.27692308 6.21538462 7.27692308 5.125 10.9375 C4.568125 11.9584375 4.568125 11.9584375 4 13 C2.42445965 10.11371599 1.53723627 7.46657616 0.875 4.25 C0.70742188 3.45078125 0.53984375 2.6515625 0.3671875 1.828125 C0.24601562 1.22484375 0.12484375 0.6215625 0 0 Z " fill="#131313" transform="translate(296,120)"/>
<path d="M0 0 C2.97851562 0.24414062 2.97851562 0.24414062 5.95703125 0.48828125 C5.95703125 0.81828125 5.95703125 1.14828125 5.95703125 1.48828125 C4.84328125 1.73578125 3.72953125 1.98328125 2.58203125 2.23828125 C-0.97428819 3.08380087 -0.97428819 3.08380087 -2.23046875 5.08203125 C-3.35952238 8.425767 -3.50936462 11.74238191 -3.66796875 15.23828125 C-3.70664062 15.93566406 -3.7453125 16.63304687 -3.78515625 17.3515625 C-3.87895499 19.06338943 -3.96203049 20.77579807 -4.04296875 22.48828125 C-4.37296875 22.48828125 -4.70296875 22.48828125 -5.04296875 22.48828125 C-5.12422984 19.75851061 -5.18358538 17.03117955 -5.23046875 14.30078125 C-5.25560547 13.53185547 -5.28074219 12.76292969 -5.30664062 11.97070312 C-5.44401683 1.30115125 -5.44401683 1.30115125 0 0 Z " fill="#A8A8A8" transform="translate(488.04296875,191.51171875)"/>
<path d="M0 0 C4 2 4 2 6 5 C6.125 7.6875 6.125 7.6875 6 10 C4.68 9.67 3.36 9.34 2 9 C1.34 6.03 0.68 3.06 0 0 Z " fill="#2E2E2E" transform="translate(307,153)"/>
<path d="M0 0 C1.4540625 0.0309375 1.4540625 0.0309375 2.9375 0.0625 C1.9375 2.0625 1.9375 2.0625 -1.0625 4.0625 C0.5875 5.0525 2.2375 6.0425 3.9375 7.0625 C0.70094816 7.0625 -0.85002639 6.4074153 -3.75 5.0625 C-4.55824219 4.69125 -5.36648438 4.32 -6.19921875 3.9375 C-6.81410156 3.64875 -7.42898438 3.36 -8.0625 3.0625 C-7.423125 2.753125 -6.78375 2.44375 -6.125 2.125 C-2.0825 0.0425 -2.0825 0.0425 0 0 Z " fill="#41A266" transform="translate(385.0625,151.9375)"/>
<path d="M0 0 C-2.28363378 2.28363378 -3.74795468 2.7152849 -6.8125 3.625 C-8.09060547 4.01558594 -8.09060547 4.01558594 -9.39453125 4.4140625 C-12.01979166 5.0044509 -14.31920637 5.10588413 -17 5 C-16.67 4.01 -16.34 3.02 -16 2 C-14.27192682 1.66104344 -12.54248026 1.32908475 -10.8125 1 C-9.84957031 0.814375 -8.88664063 0.62875 -7.89453125 0.4375 C-5.2065794 0.03122388 -2.71228981 -0.07933572 0 0 Z " fill="#4DA26F" transform="translate(256,157)"/>
<path d="M0 0 C0 0.99 0 1.98 0 3 C-0.66 3 -1.32 3 -2 3 C-2 4.65 -2 6.3 -2 8 C-2.66 8 -3.32 8 -4 8 C-4.33 8.99 -4.66 9.98 -5 11 C-5 9.02 -5 7.04 -5 5 C-5.66 4.67 -6.32 4.34 -7 4 C-7 3.34 -7 2.68 -7 2 C-2.25 0 -2.25 0 0 0 Z " fill="#1DA04F" transform="translate(240,135)"/>
<path d="M0 0 C0.66 0 1.32 0 2 0 C2 0.99 2 1.98 2 3 C2.99 3 3.98 3 5 3 C5.33 2.34 5.66 1.68 6 1 C6 2.32 6 3.64 6 5 C1.65535464 4.39174965 -2.67551867 3.73832608 -7 3 C-7 2.34 -7 1.68 -7 1 C-5.5459375 1.0309375 -5.5459375 1.0309375 -4.0625 1.0625 C-1.12534105 1.35618499 -1.12534105 1.35618499 0 0 Z " fill="#FBF3F8" transform="translate(256,159)"/>
<path d="M0 0 C1.32 0.33 2.64 0.66 4 1 C3.67 2.32 3.34 3.64 3 5 C2.01 5 1.02 5 0 5 C-0.33 5.66 -0.66 6.32 -1 7 C-3.5625 7.625 -3.5625 7.625 -6 8 C-5.34 7.01 -4.68 6.02 -4 5 C-3.01 5 -2.02 5 -1 5 C-0.67 3.35 -0.34 1.7 0 0 Z " fill="#209C51" transform="translate(332,145)"/>
<path d="M0 0 C0.99 0.33 1.98 0.66 3 1 C3.66 1 4.32 1 5 1 C7.66666667 1 10.33333333 1 13 1 C10.57869669 3.42130331 9.19888623 3.52840504 5.875 4.125 C4.96492188 4.29257813 4.05484375 4.46015625 3.1171875 4.6328125 C2.41851562 4.75398437 1.71984375 4.87515625 1 5 C0.67 3.35 0.34 1.7 0 0 Z " fill="#DFE6E2" transform="translate(281,145)"/>
<path d="M0 0 C2.475 0.495 2.475 0.495 5 1 C5.0825 1.598125 5.165 2.19625 5.25 2.8125 C6.20455872 5.5966296 7.57132271 6.43311142 10 8 C9.01 8 8.02 8 7 8 C6.67 8.66 6.34 9.32 6 10 C4.99421411 8.71283353 3.99553202 7.42011342 3 6.125 C2.443125 5.40570313 1.88625 4.68640625 1.3125 3.9453125 C0 2 0 2 0 0 Z " fill="#E9E9E9" transform="translate(217,209)"/>
<path d="M0 0 C5.98993047 -0.3152595 9.63560356 0.31780178 15 3 C15 3.33 15 3.66 15 4 C11.37 4 7.74 4 4 4 C4.99 3.34 5.98 2.68 7 2 C4.69 1.67 2.38 1.34 0 1 C0 0.67 0 0.34 0 0 Z " fill="#5E9F78" transform="translate(412,128)"/>
<path d="M0 0 C1.64826111 2.96687001 2.44271087 5.65626525 3 9 C4.98 9 6.96 9 9 9 C9 9.33 9 9.66 9 10 C6.69 10 4.38 10 2 10 C2 9.01 2 8.02 2 7 C0.68 6.67 -0.64 6.34 -2 6 C-1.34 4.02 -0.68 2.04 0 0 Z " fill="#313131" transform="translate(458,204)"/>
<path d="M0 0 C-0.33 0.99 -0.66 1.98 -1 3 C-2.98 3.33 -4.96 3.66 -7 4 C-7 3.67 -7 3.34 -7 3 C-9.31 2.67 -11.62 2.34 -14 2 C-14 1.67 -14 1.34 -14 1 C-9.23692563 0.04738513 -4.8333472 -0.08333357 0 0 Z " fill="#49A66E" transform="translate(281,158)"/>
<path d="M0 0 C1.65 0.33 3.3 0.66 5 1 C1.4912812 4.09592835 -1.49197399 5.74194623 -6 7 C-5.67 6.01 -5.34 5.02 -5 4 C-4.34 4 -3.68 4 -3 4 C-3 3.34 -3 2.68 -3 2 C-2.01 2 -1.02 2 0 2 C0 1.34 0 0.68 0 0 Z " fill="#379E64" transform="translate(490,144)"/>
<path d="M0 0 C3 2 3 2 3.73046875 4.1640625 C3.88128906 4.97617188 4.03210938 5.78828125 4.1875 6.625 C4.34605469 7.44226563 4.50460937 8.25953125 4.66796875 9.1015625 C4.83232422 10.04128906 4.83232422 10.04128906 5 11 C3.68 9.68 2.36 8.36 1 7 C0.01 7.66 -0.98 8.32 -2 9 C-1.67 7.68 -1.34 6.36 -1 5 C-0.34 5 0.32 5 1 5 C0.67 3.35 0.34 1.7 0 0 Z " fill="#43A168" transform="translate(277,139)"/>
<path d="M0 0 C0.66 0.33 1.32 0.66 2 1 C0.515 2.485 0.515 2.485 -1 4 C-1.66 3.67 -2.32 3.34 -3 3 C-3 3.66 -3 4.32 -3 5 C-6.28976808 6.09658936 -7.71303767 5.79953138 -11 5 C-7.41161963 3.13404221 -3.77010767 1.46615298 0 0 Z " fill="#D5ECDC" transform="translate(267,175)"/>
<path d="M0 0 C0.99 0.66 1.98 1.32 3 2 C3 2.66 3 3.32 3 4 C-0.13498292 5.85776765 -2.37471432 6.20140476 -6 6 C-4 4 -2 2 0 0 Z " fill="#F9F9FA" transform="translate(281,151)"/>
<path d="M0 0 C-1.6037331 0.64690922 -3.20800306 1.29248764 -4.8125 1.9375 C-5.70582031 2.29714844 -6.59914063 2.65679687 -7.51953125 3.02734375 C-9.3270909 3.73613486 -11.15807409 4.3860247 -13 5 C-13.99 4.34 -14.98 3.68 -16 3 C-14.08802961 2.29954544 -12.17019565 1.615081 -10.25 0.9375 C-9.18265625 0.55464844 -8.1153125 0.17179688 -7.015625 -0.22265625 C-4.07719958 -0.98010011 -2.77651052 -1.07151741 0 0 Z " fill="#BFDFCD" transform="translate(266,156)"/>
<path d="M0 0 C2.31 0 4.62 0 7 0 C7.33 1.32 7.66 2.64 8 4 C5.36 4 2.72 4 0 4 C0.66 3.34 1.32 2.68 2 2 C1.34 1.34 0.68 0.68 0 0 Z " fill="#389A5F" transform="translate(424,129)"/>
<path d="M0 0 C-0.66 0 -1.32 0 -2 0 C-2 0.66 -2 1.32 -2 2 C-10.03571429 4.27678571 -10.03571429 4.27678571 -14 3 C-12.42274653 2.29866401 -10.83788667 1.614417 -9.25 0.9375 C-7.92742187 0.36322266 -7.92742187 0.36322266 -6.578125 -0.22265625 C-3.84743691 -1.04600008 -2.63098653 -0.9773992 0 0 Z " fill="#449E6C" transform="translate(390,108)"/>
<path d="M0 0 C1.258125 -0.04125 2.51625 -0.0825 3.8125 -0.125 C4.52019531 -0.14820313 5.22789062 -0.17140625 5.95703125 -0.1953125 C8 0 8 0 11 2 C7.77208445 4.1519437 6.71599191 4.20086443 3 4 C3.33 3.34 3.66 2.68 4 2 C2.68 1.34 1.36 0.68 0 0 Z " fill="#C1DBCB" transform="translate(246,140)"/>
<path d="M0 0 C2.125 0.375 2.125 0.375 4 1 C2.25 5.875 2.25 5.875 0 7 C-0.66 5.35 -1.32 3.7 -2 2 C-1.34 1.34 -0.68 0.68 0 0 Z " fill="#2F9F5B" transform="translate(348,128)"/>
<path d="M0 0 C0.99 0.33 1.98 0.66 3 1 C2.4409112 4.24271506 1.5867822 5.93057424 -1 8 C-1.66 8 -2.32 8 -3 8 C-2.5359375 7.13375 -2.5359375 7.13375 -2.0625 6.25 C-1.07416636 4.15705816 -0.4831387 2.25464725 0 0 Z " fill="#E6E6E6" transform="translate(270,218)"/>
<path d="M0 0 C0 0.99 0 1.98 0 3 C-2.64 3.33 -5.28 3.66 -8 4 C-8 3.01 -8 2.02 -8 1 C-5.07175348 0.02391783 -3.04386724 -0.08226668 0 0 Z " fill="#FAF5F7" transform="translate(260,144)"/>
<path d="M0 0 C2.3828125 -0.29296875 2.3828125 -0.29296875 5.125 -0.1875 C6.03507812 -0.16042969 6.94515625 -0.13335937 7.8828125 -0.10546875 C8.58148438 -0.07066406 9.28015625 -0.03585938 10 0 C10 0.66 10 1.32 10 2 C4.06 2.495 4.06 2.495 -2 3 C-1.34 2.01 -0.68 1.02 0 0 Z " fill="#FBF9FA" transform="translate(263,156)"/>
<path d="M0 0 C0.66 0.33 1.32 0.66 2 1 C1.360625 1.268125 0.72125 1.53625 0.0625 1.8125 C-2.33131686 2.88667752 -2.33131686 2.88667752 -3 6 C-2.01 6.33 -1.02 6.66 0 7 C-1.65 7.33 -3.3 7.66 -5 8 C-4.67 6.68 -4.34 5.36 -4 4 C-4.66 3.67 -5.32 3.34 -6 3 C-4.03533587 1.93224776 -2.03144641 0.93446535 0 0 Z " fill="#48A96E" transform="translate(236,133)"/>
<path d="M0 0 C0.66 0.99 1.32 1.98 2 3 C0.35 4.65 -1.3 6.3 -3 8 C-3.66 7.67 -4.32 7.34 -5 7 C-3.35 4.69 -1.7 2.38 0 0 Z " fill="#DEF0E4" transform="translate(524,119)"/>
<path d="M0 0 C-0.33 0.99 -0.66 1.98 -1 3 C-3.97 3 -6.94 3 -10 3 C-6.26223701 0.50815801 -4.5227786 0 0 0 Z " fill="#42A36A" transform="translate(370,132)"/>
<path d="M0 0 C0 4.61538462 0 4.61538462 -1 7 C-3.5625 8.25 -3.5625 8.25 -6 9 C-4.47291037 5.56404834 -2.40072955 2.88087546 0 0 Z " fill="#55A779" transform="translate(332,143)"/>
<path d="M0 0 C0.33 0 0.66 0 1 0 C1 1.98 1 3.96 1 6 C-0.32 6 -1.64 6 -3 6 C-2.42655063 3.13275314 -2.1385485 2.1385485 0 0 Z " fill="#F6F7F8" transform="translate(238,148)"/>
<path d="M0 0 C1.9453125 -0.29296875 1.9453125 -0.29296875 4.125 -0.1875 C5.40375 -0.125625 6.6825 -0.06375 8 0 C7.360625 0.309375 6.72125 0.61875 6.0625 0.9375 C4.06389179 1.8345163 4.06389179 1.8345163 3 3 C1.33382885 3.04063832 -0.33388095 3.042721 -2 3 C-1.34 2.01 -0.68 1.02 0 0 Z " fill="#EBF4EF" transform="translate(244,141)"/>
<path d="M0 0 C0.66 0.66 1.32 1.32 2 2 C0.02 3.98 -1.96 5.96 -4 8 C-4.99 7.67 -5.98 7.34 -7 7 C-6.21625 6.401875 -5.4325 5.80375 -4.625 5.1875 C-1.85425677 3.08914751 -1.85425677 3.08914751 0 0 Z " fill="#2C2C2C" transform="translate(274,219)"/>
<path d="M0 0 C0.33 0.99 0.66 1.98 1 3 C-0.98 4.32 -2.96 5.64 -5 7 C-5.66 6.67 -6.32 6.34 -7 6 C-4.69 4.02 -2.38 2.04 0 0 Z " fill="#CCEAD8" transform="translate(279,166)"/>
<path d="M0 0 C-0.66 0 -1.32 0 -2 0 C-2 0.66 -2 1.32 -2 2 C-4.97 2 -7.94 2 -11 2 C-11 1.67 -11 1.34 -11 1 C-3.57142857 -1.42857143 -3.57142857 -1.42857143 0 0 Z " fill="#65B586" transform="translate(254,151)"/>
<path d="M0 0 C0 3 0 3 -1 6 C-3.5625 7.1875 -3.5625 7.1875 -6 8 C-2.25 2.25 -2.25 2.25 0 0 Z " fill="#E0F1E7" transform="translate(342,141)"/>
<path d="M0 0 C0.66 0 1.32 0 2 0 C2.33 0.99 2.66 1.98 3 3 C1.35 3.33 -0.3 3.66 -2 4 C-2 4.66 -2 5.32 -2 6 C-2.66 6 -3.32 6 -4 6 C-3.34 4.68 -2.68 3.36 -2 2 C-1.34 2 -0.68 2 0 2 C0 1.34 0 0.68 0 0 Z " fill="#49A674" transform="translate(224,140)"/>
</svg>
