<?xml version="1.0" encoding="UTF-8"?>
<svg version="1.1" xmlns="http://www.w3.org/2000/svg" width="2000" height="707">
<path d="M0 0 C1.59616024 -0.00462319 3.1923162 -0.01098552 4.78846347 -0.01890898 C9.12222177 -0.03543061 13.45562258 -0.02743533 17.78938127 -0.0149641 C22.48336968 -0.00584484 27.17730026 -0.01991704 31.87127686 -0.03088379 C41.04554582 -0.04859996 50.21968332 -0.04486019 59.39395727 -0.03323323 C66.85386486 -0.02417298 74.31373579 -0.02298607 81.77364731 -0.02732849 C82.83830257 -0.02794142 83.90295784 -0.02855436 84.99987539 -0.02918586 C87.16316535 -0.03046485 89.3264553 -0.03176171 91.48974524 -0.03307623 C111.73822621 -0.04446151 131.98663454 -0.0314 152.23510359 -0.00987476 C169.58604248 0.0079995 186.93687431 0.0048854 204.28781128 -0.0135498 C224.47052708 -0.03498392 244.65317937 -0.04336848 264.83590496 -0.03110075 C266.99030295 -0.02982664 269.14470095 -0.02856916 271.29909897 -0.02732849 C272.35892006 -0.02671139 273.41874115 -0.02609429 274.51067803 -0.02545848 C281.95733086 -0.02201359 289.4039432 -0.02781522 296.85058975 -0.0372467 C305.93154463 -0.04849611 315.01236131 -0.04536475 324.09330048 -0.02412373 C328.72106314 -0.01365361 333.34859585 -0.0094222 337.97635651 -0.02272034 C342.22149335 -0.03473402 346.46618942 -0.0279357 350.71128689 -0.00681013 C352.23794905 -0.00238182 353.76464929 -0.00452422 355.29128648 -0.01431328 C373.62798362 -0.12277262 390.63541867 4.21037524 404.16036987 17.23840332 C404.90029175 17.98734863 405.64021362 18.73629395 406.40255737 19.50793457 C407.03935425 20.12281738 407.67615112 20.7377002 408.33224487 21.37121582 C421.80597339 35.35395186 425.55567966 56.15792976 425.48737597 74.85025537 C425.34344722 81.05697421 424.79439158 87.22187343 424.23913574 93.40278625 C424.1122141 94.86274072 423.98578684 96.32273824 423.85980546 97.78277415 C423.51527172 101.75912414 423.16377353 105.73483117 422.81104279 109.71046126 C422.43063093 114.01219855 422.05678072 118.3145069 421.68208313 122.616745 C420.948164 131.03159884 420.20823659 139.4459139 419.46623065 147.86005811 C418.60113164 157.67253469 417.74195307 167.48552701 416.88297968 177.29854139 C415.34924305 194.81772439 413.81003831 212.33642268 412.26779175 229.8548584 C410.7737151 246.8261743 409.28366941 263.79783778 407.79806519 280.76989746 C407.6608661 282.33729933 407.6608661 282.33729933 407.52089532 283.93636588 C407.42958252 284.97955105 407.33826971 286.02273621 407.24418986 287.09753305 C405.5497032 306.45542353 403.8512946 325.81296824 402.15114803 345.17036239 C401.55155312 351.99824386 400.95312985 358.82622745 400.35509109 365.65424538 C399.62524758 373.98627421 398.89314724 382.31810142 398.1582966 390.64969019 C397.78393821 394.89456973 397.41047787 399.13952269 397.03960609 403.3847084 C396.6991264 407.2816304 396.35584543 411.17829577 396.01045696 415.07478567 C395.88692704 416.47364079 395.76435674 417.87258111 395.64292331 419.27161977 C393.17262714 447.70483496 393.17262714 447.70483496 390.21505737 457.19543457 C389.99930054 457.89765137 389.7835437 458.59986816 389.56124878 459.32336426 C383.02605614 479.5682045 369.29590772 494.39663916 350.65255737 504.25793457 C342.00038099 508.38672619 332.10197074 512.73316439 322.40255737 512.50793457 C322.41158994 513.11062731 322.4206225 513.71332005 322.42992878 514.3342762 C322.48201707 520.52843614 322.17099873 526.6132086 321.62399292 532.78088379 C321.54102966 533.75483597 321.45806641 534.72878815 321.37258911 535.73225403 C321.09925052 538.92610974 320.81956722 542.11936954 320.53927612 545.31262207 C320.34448402 547.55968551 320.14989221 549.80676631 319.95549011 552.05386353 C319.54730662 556.75951808 319.1358135 561.46486919 318.72213745 566.17004395 C318.19726738 572.14435989 317.68192293 578.11945259 317.16931438 584.09483147 C316.7696045 588.7386227 316.364012 593.38188701 315.95682716 598.02502823 C315.76475993 600.22445038 315.57459278 602.42403946 315.38651085 604.623806 C314.4708342 615.30294215 313.45730791 625.94396453 311.90182495 636.5513916 C311.78638431 637.35029753 311.67094366 638.14920345 311.55200481 638.97231865 C308.37188982 659.53782008 297.7675521 676.57256873 281.59005737 689.32043457 C265.5283725 700.77527959 246.90460881 706.84491597 227.21208191 706.77536011 C226.24869296 706.77989122 225.28530401 706.78442233 224.29272145 706.78909075 C221.09791929 706.80164661 217.90328952 706.80012016 214.70846558 706.79846191 C212.4045795 706.80445237 210.10069543 706.8112591 207.79681396 706.81881714 C201.5636451 706.83642416 195.3305312 706.84117007 189.09733987 706.84244871 C185.2007689 706.84387301 181.30421179 706.84814773 177.40764427 706.85344315 C164.50883087 706.87096861 151.61005633 706.8802856 138.71123157 706.8787822 C137.67079746 706.87866233 137.67079746 706.87866233 136.60934448 706.87854004 C135.91486901 706.87845828 135.22039354 706.87837652 134.50487336 706.87829228 C123.23653102 706.87747842 111.96832202 706.89664863 100.70001826 706.92481677 C89.1102126 706.9535588 77.52047812 706.96699041 65.93063611 706.96562922 C59.43143714 706.96511942 52.93238947 706.97081394 46.43322182 706.99198532 C40.3255629 707.01134088 34.21820018 707.01151031 28.11053085 706.99695206 C25.87081024 706.99486008 23.6310712 706.9995879 21.39138222 707.01167297 C18.33126716 707.0271148 15.27217503 707.01782398 12.21208191 707.00241089 C11.32851511 707.01269801 10.44494831 707.02298514 9.53460675 707.033584 C2.77876757 706.95851544 -2.46242187 705.21325171 -7.62088013 700.76184082 C-15.15768464 691.32994384 -14.98902006 681.5846625 -13.88479614 669.91760254 C-13.79716003 668.91152451 -13.70952393 667.90544647 -13.61923218 666.86888123 C-13.33042389 663.57844495 -13.0285005 660.28935752 -12.72634888 657.00012207 C-12.52232319 654.70520123 -12.31912422 652.41020675 -12.11671448 650.11514282 C-11.58406572 644.10080292 -11.04025141 638.08752396 -10.49404907 632.07440186 C-9.93773852 625.92785119 -9.39207186 619.78035658 -8.8454895 613.63293457 C-7.77318018 601.59032422 -6.68906427 589.5488086 -5.59744263 577.50793457 C-4.28933719 577.50435204 -4.28933719 577.50435204 -2.95480537 577.50069714 C18.28731843 577.4415014 39.52932921 577.36592199 60.77132988 577.27221966 C71.04390307 577.22729849 81.31644188 577.18787532 91.58908081 577.16149902 C100.54513149 577.13848917 109.50107303 577.10505774 118.45703709 577.05923301 C123.19695907 577.03534111 127.93677322 577.01658591 132.676754 577.01032066 C137.14357325 577.00425155 141.61011676 576.98418597 146.07683372 576.95365906 C147.71097203 576.94490803 149.34514641 576.94115013 150.97930717 576.94292641 C161.99988743 576.95111887 172.4336393 576.7684873 181.40255737 569.50793457 C188.9038278 561.79234213 189.14908065 551.872787 190.02755737 541.69543457 C190.14872925 540.39283691 190.26990112 539.09023926 190.39474487 537.74816895 C190.74127261 534.00227945 191.07255212 530.25531181 191.40255737 526.50793457 C191.57582818 524.5938109 191.74963506 522.6797357 191.92388916 520.76570129 C192.01362188 519.77973622 192.10335461 518.79377115 192.1958065 517.77792835 C192.26403429 517.0288304 192.33226208 516.27973246 192.40255737 515.50793457 C191.11856552 515.50554622 189.83457367 515.50315786 188.51167297 515.50069714 C157.9776177 515.44323838 127.44364135 515.37043799 96.90967053 515.27894829 C93.14493002 515.2676812 89.38018913 515.25654258 85.615448 515.2454834 C84.86601004 515.24327971 84.11657209 515.24107603 83.34442389 515.23880557 C71.23697309 515.20351001 59.12952234 515.17860229 47.02203929 515.15758755 C34.58274461 515.13576362 22.14351622 515.10265114 9.70427799 515.05923301 C2.03922881 515.03282935 -5.6257379 515.0150511 -13.29083025 515.00858853 C-19.18546539 515.00267135 -25.07997926 514.98098769 -30.97455597 514.95365906 C-33.38020782 514.94491605 -35.78588413 514.94114844 -38.19155121 514.94292641 C-59.46824956 514.95367978 -78.9309752 513.74920918 -96.59744263 500.50793457 C-97.18912231 500.09285645 -97.780802 499.67777832 -98.39041138 499.25012207 C-112.27699685 488.6365762 -118.26770749 470.59943933 -120.99978638 454.07434082 C-122.39433828 443.35730495 -121.39550249 432.59704589 -120.44075012 421.88723755 C-120.31461734 420.43256596 -120.18889978 418.97785833 -120.06355792 417.52311838 C-119.72018349 413.55197501 -119.37090229 409.58137063 -119.02058709 405.61083436 C-118.64286169 401.3177694 -118.27064991 397.02422582 -117.89770508 392.73074341 C-117.16685331 384.32736175 -116.43082346 375.92444143 -115.69287761 367.52168007 C-115.09249912 360.68444938 -114.49392249 353.84706318 -113.89661598 347.00956345 C-113.81144595 346.03463914 -113.72627592 345.05971483 -113.63852498 344.05524736 C-113.46547222 342.07428685 -113.29242242 340.09332608 -113.11937556 338.11236505 C-111.49725966 319.54582608 -109.8691383 300.97981742 -108.23905674 282.41397636 C-106.84378861 266.520767 -105.45409217 250.62707836 -104.06838989 234.73303223 C-102.4566493 216.24632301 -100.84107334 197.75995505 -99.21972972 179.2740854 C-99.04638581 177.29754526 -98.87304806 175.32100458 -98.69971657 173.34446335 C-98.61445129 172.37216813 -98.529186 171.39987292 -98.44133693 170.39811421 C-97.84393574 163.58273454 -97.24926404 156.76711995 -96.65570641 149.95140457 C-95.93050852 141.62477753 -95.20116522 133.29852566 -94.46668323 124.97271223 C-94.0928097 120.73342105 -93.72069426 116.49399708 -93.35369682 112.25410461 C-87.78239713 47.94865633 -87.78239713 47.94865633 -69.59744263 27.50793457 C-69.00447388 26.82086426 -68.41150513 26.13379395 -67.80056763 25.42590332 C-50.53399323 6.72044772 -24.61354857 -0.15833396 0 0 Z M38.81995106 138.54221725 C34.27662156 144.84314943 32.76234874 151.48264508 32.19284058 159.09680176 C32.10898039 160.04005562 32.0251202 160.98330948 31.9387188 161.95514679 C31.65790899 165.15393901 31.39971946 168.35417341 31.14083862 171.55480957 C30.9384992 173.90673181 30.73452515 176.25851386 30.52909851 178.61016846 C30.12923902 183.20854736 29.73457691 187.8072988 29.34689802 192.40671563 C28.46428146 202.87379115 27.53525597 213.33652297 26.59933472 223.7989502 C26.2756026 227.42129157 25.95204543 231.04364854 25.62860107 234.66601562 C25.54693841 235.58051373 25.46527574 236.49501184 25.38113844 237.437222 C24.28471622 249.72597453 23.2054062 262.01623458 22.1251812 274.30641937 C21.95568241 276.23475694 21.78617823 278.16309404 21.6166687 280.09143066 C21.53252531 281.04871897 21.44838192 282.00600728 21.36168873 282.99230433 C20.66863994 290.87316253 19.971289 298.75363637 19.27320212 306.63404965 C18.59063151 314.34196812 17.91140428 322.05017671 17.23470002 329.75861239 C16.83447035 334.31681685 16.43286301 338.87488918 16.02766991 343.43265533 C15.65032194 347.67812467 15.27713959 351.92394004 14.90711212 356.17005348 C14.77156543 357.71731333 14.63454908 359.26444529 14.49589729 360.81142998 C14.30598626 362.93293286 14.12155068 365.05484777 13.93836975 367.17694092 C13.83424869 368.35859959 13.73012762 369.54025826 13.62285137 370.75772476 C13.35329009 375.34664402 13.35770256 379.91278897 13.40255737 384.50793457 C43.29730994 384.599253 73.1920578 384.67000836 103.08691987 384.71219589 C106.61905317 384.71719851 110.1511862 384.72237582 113.68331909 384.72766113 C114.38648107 384.72871037 115.08964306 384.72975962 115.81411298 384.73084065 C127.18848696 384.74822948 138.5627798 384.77975873 149.9371057 384.81654575 C161.6146988 384.85399765 173.29224467 384.87588013 184.96989501 384.88428855 C191.52635061 384.88950042 198.08262236 384.90173883 204.63901901 384.9308548 C210.81299431 384.95804977 216.98671039 384.96637115 223.1607399 384.9603653 C225.4238094 384.96146369 227.68688778 384.96939296 229.9499054 384.98475647 C233.0470989 385.0047478 236.14332215 384.99983998 239.24053955 384.98895264 C240.12967493 385.000604 241.01881032 385.01225537 241.9348892 385.02425981 C249.55686349 384.95216542 256.64881231 382.86200301 262.77755737 378.19543457 C273.29074046 367.4319376 272.15260463 350.64998098 273.37374878 336.51379395 C273.56080705 334.39207763 273.7483036 332.27039992 273.936203 330.14875793 C274.44292496 324.41166332 274.94318683 318.67402259 275.441998 312.93623543 C275.96603183 306.9179903 276.49516587 300.90019319 277.02349854 294.88232422 C277.90971062 284.77851687 278.79164462 274.67434279 279.67111206 264.56994629 C280.68648831 252.90476041 281.70898752 241.24021522 282.73523009 229.57598066 C283.72418788 218.33328685 284.70774348 207.09012643 285.68897629 195.84675598 C286.10581537 191.07176293 286.52459331 186.29694586 286.94496536 181.52226257 C287.44015965 175.89521587 287.93062539 170.26777613 288.41751671 164.64000511 C288.5964652 162.58039801 288.77702048 160.52092976 288.95934105 158.46161842 C290.24547346 144.0090371 290.24547346 144.0090371 290.40255737 129.50793457 C260.65222086 129.41659755 230.90188909 129.34585121 201.15144248 129.30367325 C197.63561922 129.29867069 194.11979624 129.29349337 190.60397339 129.28820801 C189.90406433 129.28715877 189.20415528 129.28610952 188.48303685 129.28502849 C177.16430366 129.26764413 165.84565209 129.23611738 154.52696725 129.19932339 C142.90473995 129.161859 131.28256013 129.13998634 119.66027528 129.13158059 C113.13564541 129.12637087 106.61120042 129.11414613 100.08662987 129.08501434 C93.94137829 129.05779934 87.7963872 129.04950202 81.65108109 129.05550385 C79.39971945 129.05440634 77.14834881 129.04648905 74.89703941 129.03111267 C55.05265878 128.43224517 55.05265878 128.43224517 38.81995106 138.54221725 Z " fill="#CD0E2C" transform="translate(965.5974426269531,-0.5079345703125)"/>
<path d="M0 0 C1.5894026 -0.00374129 3.17880336 -0.00834471 4.76820123 -0.01373065 C9.1157467 -0.02591706 13.46321497 -0.02570534 17.81077361 -0.02334189 C22.50761957 -0.02293262 27.20444114 -0.03398348 31.90127563 -0.04345703 C41.09618595 -0.06004442 50.29107062 -0.06556557 59.48599465 -0.06668179 C66.96369308 -0.0676334 74.44138307 -0.07174934 81.91907883 -0.07808304 C103.13923698 -0.0956898 124.35937494 -0.10492287 145.57954045 -0.10342209 C147.29422447 -0.10330222 147.29422447 -0.10330222 149.04354858 -0.10317993 C150.1880739 -0.10309817 151.33259922 -0.10301641 152.51180713 -0.10293217 C171.05286167 -0.10211958 189.59383492 -0.12125188 208.13486595 -0.14945666 C227.19179471 -0.17821648 246.24868386 -0.19199523 265.30563486 -0.19026911 C275.99692938 -0.18960625 286.68813868 -0.19505297 297.3794136 -0.21662521 C306.4835527 -0.23487786 315.58756795 -0.23915092 324.69171746 -0.22560637 C329.33171638 -0.21909712 333.97147799 -0.2188852 338.61145401 -0.23631287 C342.86924303 -0.25213973 347.12660849 -0.24908297 351.38438778 -0.2317446 C352.91464799 -0.22869569 354.44494059 -0.23222635 355.97516258 -0.24346475 C375.75219451 -0.37895097 393.21366834 4.55520366 407.81356812 18.60336304 C423.85201731 36.13256552 427.16316949 59.46954789 426.25106812 82.26742554 C425.6064692 92.94997464 424.62361987 103.60887123 423.67421257 114.26775253 C423.29362206 118.56237919 422.92316188 122.85788228 422.55133057 127.15327454 C421.8236924 135.54033185 421.08679719 143.9265503 420.3465031 152.31249901 C419.74457725 159.13320566 419.14617998 165.95421362 418.55024147 172.77544594 C418.46507144 173.75030573 418.37990141 174.72516552 418.29215047 175.72956652 C418.11909137 177.71061559 417.9460416 179.69166548 417.77300105 181.67271618 C416.15443071 200.19847606 414.52543626 218.72330768 412.89268223 237.24782214 C411.49475153 253.11070237 410.10524374 268.97430166 408.72201538 284.83847046 C407.11166727 303.307385 405.49647593 321.77586492 403.87335521 340.2436617 C403.70001295 342.21605821 403.52667522 344.18845512 403.35334206 346.16085243 C403.26807677 347.13105561 403.18281149 348.10125878 403.09496241 349.10086205 C402.49707193 355.9076631 401.90255211 362.71475363 401.30933189 369.52196312 C400.5855643 377.82592535 399.85633199 386.12938691 399.12030872 394.43227216 C398.74558042 398.66093327 398.3731543 402.88976081 398.00732231 407.11920166 C392.33417374 472.63029483 392.33417374 472.63029483 365.82138062 495.34945679 C363.372559 497.17576651 360.89673111 498.73923139 358.25106812 500.26742554 C357.69499878 500.59049683 357.13892944 500.91356812 356.56600952 501.24642944 C342.30277135 509.37125183 326.09971803 514.38055538 309.59632301 514.3988533 C307.63695791 514.40461502 307.63695791 514.40461502 305.63800967 514.41049314 C304.20040483 514.40971302 302.76280004 514.40883426 301.32519531 514.40786743 C299.78859361 514.41045316 298.25199258 514.4134669 296.71539247 514.41687083 C292.49983636 514.42492001 288.28429729 514.42672925 284.06873441 514.4274683 C279.51906457 514.42932255 274.96940351 514.43687186 270.41973877 514.44360352 C260.47304928 514.45717371 250.52636382 514.46320983 240.57966661 514.46761417 C234.36404746 514.47037946 228.14842985 514.47461739 221.93281174 514.47911835 C204.71064921 514.4913105 187.48848793 514.50160914 170.26632118 514.50499344 C169.16445698 514.505213 168.06259277 514.50543257 166.92733874 514.50565879 C165.8228877 514.50587707 164.71843666 514.50609535 163.58051741 514.50632024 C161.34260853 514.5067637 159.10469965 514.50721026 156.86679077 514.50765991 C155.75671863 514.50788134 154.6466465 514.50810277 153.50293581 514.50833091 C135.5314366 514.51227564 117.55997802 514.52971998 99.58849449 514.55301943 C81.12039652 514.57676862 62.6523189 514.58919695 44.18420541 514.59036136 C33.8220469 514.59127624 23.45994129 514.59698123 13.09779739 514.61518097 C4.27067791 514.63063031 -4.55637232 514.6356741 -13.38350277 514.62744287 C-17.88180156 514.6235531 -22.3799611 514.62438343 -26.87824249 514.63850021 C-31.0078439 514.65134059 -35.13720286 514.64995395 -39.26680441 514.6379095 C-40.74939355 514.63596985 -42.23200047 514.6389493 -43.71456473 514.64775386 C-51.54330828 514.69124919 -59.07625076 514.25104891 -66.79241371 512.91633224 C-67.47799847 512.79795205 -68.16358323 512.67957186 -68.86994328 512.55760439 C-79.85565513 510.47677475 -89.46980126 505.77490904 -97.74893188 498.26742554 C-98.76020142 497.41084351 -98.76020142 497.41084351 -99.79190063 496.53695679 C-111.67167297 485.76014204 -119.0333579 467.83175941 -119.87298262 451.9159348 C-120.37948398 433.02374522 -118.85778668 414.34529193 -117.17207634 395.55604577 C-116.78954309 391.26375761 -116.42028073 386.97032259 -116.04919434 382.67703247 C-115.32366881 374.3069824 -114.58621121 365.93802678 -113.84436687 357.56940894 C-112.97872042 347.79967813 -112.12467592 338.02894287 -111.27086482 328.25817187 C-109.74641139 310.81787164 -108.21078662 293.37857312 -106.6690979 275.93978882 C-105.17663534 259.05779064 -103.69342247 242.17501146 -102.21987915 225.29135132 C-100.60991177 206.8447084 -98.99493662 188.398517 -97.37121898 169.95307887 C-97.19787948 167.98388282 -97.02454175 166.01468662 -96.85120583 164.04549026 C-96.76594054 163.0769163 -96.68067526 162.10834234 -96.59282618 161.11041766 C-95.99492725 154.31510096 -95.40043575 147.51949116 -94.80719566 140.72376633 C-94.08384573 132.43927887 -93.35463506 124.1553308 -92.61817249 115.87199835 C-92.2432433 111.65356284 -91.87074144 107.43495349 -91.50518608 103.21569443 C-91.1695712 99.34294465 -90.82646656 95.47092941 -90.47773037 91.5993398 C-90.29577828 89.5589504 -90.12145659 87.51788482 -89.94754237 85.4767946 C-87.50651683 58.72400111 -80.16508003 36.19955053 -59.18643188 18.14242554 C-49.49923579 10.70000739 -37.53581474 5.32777301 -25.74893188 2.26742554 C-24.7932799 2.01737371 -24.7932799 2.01737371 -23.81832182 1.76227033 C-15.91406612 -0.07027228 -8.06301447 -0.01806693 0 0 Z M38.00497437 140.93930054 C31.3629759 152.32558362 32.39394563 169.80597166 31.27987671 182.68148804 C31.09271325 184.81175005 30.90521927 186.94198305 30.71742249 189.07218933 C30.21195695 194.81714232 29.71127115 200.56250245 29.21162748 206.30796432 C28.68691868 212.33381051 28.15823812 218.35930841 27.63012695 224.38485718 C26.74491768 234.49180288 25.86276656 244.5990119 24.98251343 254.70639038 C23.96502718 266.389159 22.94295829 278.07151975 21.9183954 289.75366974 C20.93136291 301.00883479 19.94728386 312.26425611 18.9646492 323.51980591 C18.54690473 328.30443269 18.1281744 333.08897168 17.70866013 337.8734436 C17.21540451 343.50067911 16.72474974 349.12813551 16.23610878 354.75577354 C16.05640622 356.82064264 15.87581903 358.88543497 15.69428444 360.95014381 C15.4467518 363.76720785 15.20242844 366.58453241 14.95892334 369.40194702 C14.85007767 370.6279106 14.85007767 370.6279106 14.7390331 371.87864113 C14.38442911 376.02358389 14.17572746 380.10213809 14.25106812 384.26742554 C44.14582068 384.35874397 74.04056854 384.42949933 103.93543061 384.47168685 C107.46756391 384.47668947 110.99969694 384.48186678 114.53182983 384.4871521 C115.23499182 384.48820134 115.9381538 384.48925058 116.66262372 384.49033162 C128.03699771 384.50772045 139.41129054 384.53924969 150.78561644 384.57603672 C162.46320955 384.61348862 174.14075541 384.63537109 185.81840575 384.64377952 C192.37486135 384.64899138 198.93113311 384.6612298 205.48752975 384.69034576 C211.66150505 384.71754074 217.83522114 384.72586212 224.00925064 384.71985626 C226.27232014 384.72095466 228.53539852 384.72888392 230.79841614 384.74424744 C233.89560964 384.76423877 236.9918329 384.75933095 240.08905029 384.7484436 C240.97818568 384.76009497 241.86732106 384.77174634 242.78339994 384.78375077 C251.37949255 384.70244245 259.47637712 382.01080755 265.78622437 375.99789429 C275.67937826 364.31078182 273.95746975 342.17625598 275.22225952 327.57870483 C275.40949324 325.44328649 275.59698538 323.30789079 275.78471375 321.17251587 C276.28935205 315.42367961 276.79031657 309.67452876 277.29050875 303.92530417 C277.81568503 297.89543776 278.34405657 291.86585125 278.87200928 285.83622742 C279.75656215 275.72858913 280.63884697 265.62075495 281.5196228 255.51278687 C282.53842735 243.82094498 283.56022591 232.12936786 284.58374083 220.43793744 C285.67464043 207.9765764 286.76355429 195.51504247 287.85178328 183.05344796 C288.16542235 179.46330491 288.47941441 175.87319288 288.7934761 172.28308678 C289.28557229 166.65655524 289.77632719 161.02990828 290.26602745 155.40316772 C290.44618348 153.33546382 290.62678349 151.26779855 290.80785179 149.20017433 C291.05417896 146.38644719 291.29890962 143.57258574 291.54321289 140.75868225 C291.61577667 139.93399891 291.68834045 139.10931557 291.76310313 138.25964183 C292.02292196 135.25146437 292.25106812 132.28845339 292.25106812 129.26742554 C262.35631555 129.1761071 232.46156769 129.10535174 202.56670562 129.06316422 C199.03457232 129.0581616 195.50243929 129.05298429 191.9703064 129.04769897 C191.26714441 129.04664973 190.56398243 129.04560049 189.83951251 129.04451945 C178.46513852 129.02713063 167.09084569 128.99560138 155.71651979 128.95881435 C144.03892668 128.92136246 132.36138082 128.89947998 120.68373048 128.89107156 C114.12727488 128.88585969 107.57100312 128.87362127 101.01460648 128.84450531 C94.84063118 128.81731034 88.66691509 128.80898895 82.49288559 128.81499481 C80.22981609 128.81389642 77.96673771 128.80596715 75.70372009 128.79060364 C72.60652659 128.77061231 69.51030333 128.77552013 66.41308594 128.78640747 C65.52395055 128.7747561 64.63481517 128.76310474 63.71873629 128.7511003 C53.54509482 128.84733028 44.18566463 132.64671298 38.00497437 140.93930054 Z " fill="#CD0E2C" transform="translate(1567.7489318847656,-0.267425537109375)"/>
<path d="M0 0 C4.69056925 0.01349432 9.38106085 -0.00210573 14.07162249 -0.01382196 C23.23528966 -0.03211247 32.39874229 -0.02374454 41.56240257 -0.00573374 C49.01415361 0.00834205 56.46584675 0.01217441 63.91760981 0.00882399 C65.51375316 0.00810783 65.51375316 0.00810783 67.14214182 0.0073772 C69.30438299 0.00635078 71.46662414 0.00529542 73.62886528 0.00421143 C92.7083327 -0.00433793 111.78769711 0.01226331 130.86713946 0.04204047 C149.34993084 0.07088572 167.83257392 0.07795331 186.31538165 0.06254828 C206.48237846 0.04576234 226.649305 0.04177536 246.81630367 0.05925864 C248.96928421 0.06110288 251.12226475 0.06293761 253.27524531 0.06476271 C254.33433571 0.0656748 255.39342611 0.06658689 256.48461017 0.06752662 C263.92279782 0.0731162 271.36095099 0.06983972 278.79913676 0.06321776 C287.87014013 0.05546209 296.94099788 0.06231772 306.01197203 0.0873928 C310.63379198 0.09983471 315.25538582 0.10609919 319.87721407 0.09485114 C324.11801327 0.0847257 328.35836394 0.09344266 332.59910909 0.11643232 C334.12303435 0.12154273 335.64700063 0.12011953 337.1709074 0.11103766 C355.88613816 0.00888736 373.35401592 4.18666022 387.23505938 17.33525336 C401.02133521 30.99782382 407.42731502 48.95236455 407.6368078 68.12773436 C407.65298883 85.33784339 406.36526303 102.30859273 404.83350742 119.43709159 C404.4527285 123.72460832 404.08567875 128.01330625 403.71670306 132.30185187 C402.99532008 140.66111199 402.26148678 149.0192318 401.52290061 157.3769877 C400.92237975 164.17502739 400.32650351 170.9734599 399.73381579 177.77218688 C399.64893448 178.74580951 399.56405318 179.71943215 399.47659971 180.72255851 C399.30410564 182.70135105 399.13162161 184.68014447 398.95914748 186.65893876 C397.34833486 205.13352417 395.72319939 223.60682772 394.09304455 242.07971507 C392.69803261 257.89186003 391.31554011 273.7050593 389.94209063 289.51909125 C388.34146239 307.94882357 386.73294665 326.3778401 385.1120795 344.80580431 C384.93899429 346.77389649 384.76591945 348.74198959 384.5928551 350.7100836 C384.50773053 351.67808115 384.42260596 352.6460787 384.33490185 353.64340951 C383.73871579 360.42913248 383.14809593 367.21532639 382.55969775 374.00172865 C381.84200806 382.2776293 381.11563932 390.55271496 380.37844589 398.82690192 C380.00334941 403.03935429 379.63194935 407.25203843 379.27116358 411.46574271 C376.73905605 440.98271178 374.21581015 468.44329685 352.39570391 490.6389643 C351.7808211 491.26673773 351.16593829 491.89451117 350.53242266 492.54130805 C332.00817757 510.03422472 305.82541974 515.14246004 281.26055682 515.01991522 C279.71460929 515.02338314 278.16866424 515.02815522 276.62272424 515.03409696 C272.42776523 515.04648102 268.23301414 515.04049491 264.03805494 515.0311383 C259.49334281 515.02429585 254.94866419 515.03485451 250.40395892 515.04307806 C241.52214423 515.05636231 232.64040595 515.05356155 223.75858837 515.04484014 C216.53563144 515.03804342 209.3126958 515.03715544 202.08973658 515.04041159 C201.05867437 515.04087129 200.02761216 515.04133099 198.96530565 515.04180462 C196.87022542 515.04276387 194.7751452 515.04373651 192.68006498 515.04472239 C173.07155594 515.05326062 153.46308909 515.04346658 133.85458697 515.02732129 C117.05601565 515.01391755 100.25750653 515.01624973 83.45893633 515.03007758 C63.91529694 515.04615769 44.37169445 515.05243889 24.82804936 515.04324079 C22.74131807 515.04228521 20.65458678 515.0413421 18.56785548 515.04041159 C17.54134442 515.03994876 16.51483337 515.03948594 15.45721592 515.03900909 C8.24848505 515.03642664 1.03977773 515.04077403 -6.16894948 515.04785025 C-14.96182956 515.05629242 -23.75462936 515.05392815 -32.54750032 515.03800802 C-37.02751001 515.03016204 -41.5073862 515.02697051 -45.98739469 515.03695548 C-50.09866936 515.04597957 -54.20968841 515.04084446 -58.32094031 515.02502282 C-59.79782431 515.02170735 -61.2747305 515.02329487 -62.75159992 515.03065018 C-83.87351699 515.12766829 -102.995264 510.96454295 -119.00663984 496.46318305 C-133.32914924 481.89584442 -138.8442446 460.92766302 -138.84134501 440.99744761 C-138.67601074 427.60118001 -137.21292753 414.22229147 -136.02744055 400.88542759 C-135.64748977 396.59137288 -135.27663623 392.29653053 -134.90455854 388.00178778 C-134.1762061 379.61151157 -133.43949921 371.2219896 -132.69973107 362.83271301 C-132.09814699 356.0086004 -131.49970889 349.18421851 -130.90346944 342.3596369 C-130.81829941 341.38479485 -130.73312938 340.40995281 -130.64537844 339.40557009 C-130.47232069 337.42460356 -130.29927091 335.44363633 -130.12622903 333.46266842 C-128.50686673 314.92837363 -126.87806778 296.39491763 -125.2459102 277.86174583 C-123.84859707 261.99285376 -122.45904098 246.12329828 -121.07524335 230.25322211 C-119.46454923 211.78104718 -117.84926896 193.30928299 -116.22658318 174.8381573 C-116.05324067 172.86486918 -115.87990293 170.89158065 -115.70657003 168.91829169 C-115.62130475 167.94763925 -115.53603947 166.97698681 -115.44819039 165.97692066 C-114.85043003 159.16859759 -114.25587144 152.35999935 -113.66255987 145.55128729 C-112.93843842 137.24257962 -112.20917659 128.9343415 -111.47353669 120.62664545 C-111.09902384 116.39583137 -110.7266745 112.16485913 -110.36055028 107.93331015 C-104.65838041 42.10506933 -104.65838041 42.10506933 -80.97734296 21.20292914 C-56.874545 1.50488226 -29.78661824 -0.12075145 0 0 Z M21.39570391 138.6389643 C17.46340112 144.10903913 16.09628389 149.47340915 15.37827837 156.12124884 C15.29784529 156.85695921 15.2174122 157.59266959 15.13454175 158.35067421 C14.09179419 168.11109389 13.26343997 177.8928567 12.42451251 187.67241156 C12.237252 189.83254657 12.04976059 191.99266158 11.86205828 194.15275824 C11.35779361 199.96334961 10.85672234 205.77421227 10.35626328 211.58513248 C9.83098066 217.67777877 9.302707 223.77016572 8.77476275 229.86258185 C7.77754547 241.37556615 6.78298342 252.88877819 5.78939652 264.4020763 C4.65722665 277.51969211 3.52206438 290.63704842 2.38666189 303.75438476 C0.05303399 330.71562568 -2.27687225 357.67718715 -4.60429609 384.6389643 C25.41785099 384.73028198 55.4399933 384.8010377 85.46224868 384.84322561 C89.00940325 384.84822823 92.55655756 384.85340554 96.10371172 384.85869086 C97.16294062 384.86026472 97.16294062 384.86026472 98.24356808 384.86187038 C109.66644083 384.87925938 121.08923278 384.91078873 132.51205765 384.94757548 C144.23936959 384.98502687 155.9666393 385.007209 167.69400859 385.01531827 C174.27840953 385.02053023 180.86262739 385.0327692 187.44696963 385.06188452 C193.64720946 385.08907869 199.84719118 385.09740104 206.04748499 385.09139502 C208.32022978 385.09249345 210.5929834 385.1004232 212.86567652 385.11578619 C215.97600592 385.13577624 219.08536906 385.13087015 222.19572222 385.11998236 C223.08874855 385.13163373 223.98177489 385.14328509 224.90186262 385.15528953 C232.96852233 385.07930334 240.14356222 382.90300266 246.27070391 377.5139643 C252.8687077 370.20879513 254.07947319 361.02138869 254.82441485 351.55522406 C254.98180069 349.79464116 254.98180069 349.79464116 255.14236605 347.99849093 C255.42663809 344.78441152 255.69715626 341.56953285 255.96163332 338.35377562 C256.24820702 334.91138995 256.55287694 331.47060143 256.85542071 328.0295893 C257.37049427 322.14395185 257.87454934 316.25745946 258.3706795 310.37019598 C259.08003145 301.95296952 259.80586927 293.53723189 260.53642285 285.12182188 C261.60281141 272.83596241 262.66015138 260.54935357 263.7103225 248.26209807 C265.09349476 232.08267873 266.51341556 215.90676012 267.95820391 199.7327143 C268.1508207 197.57206921 268.34338758 195.41141968 268.53590167 193.25076544 C269.24352928 185.31098195 269.95141031 177.37122201 270.6621834 169.43171942 C271.06183693 164.96375442 271.45793171 160.49548731 271.85130084 156.02696478 C271.99270586 154.4273541 272.13533467 152.827851 272.27934039 151.22847235 C272.47339125 149.07203728 272.66310748 146.91526226 272.8517586 144.75834906 C272.95768328 143.56669638 273.06360796 142.3750437 273.17274249 141.14728034 C273.33801609 138.54668677 273.41922326 136.01999977 273.409639 133.41969454 C273.40504042 132.17205356 273.40044184 130.92441258 273.39570391 129.6389643 C243.6453674 129.54762728 213.89503562 129.47688093 184.14458902 129.43470298 C180.62876576 129.42970041 177.11294277 129.4245231 173.59711993 129.41923773 C172.89721087 129.41818849 172.19730181 129.41713925 171.47618339 129.41605821 C160.1574502 129.39867386 148.83879863 129.3671471 137.52011379 129.33035311 C125.89788648 129.29288872 114.27570667 129.27101607 102.65342182 129.26261032 C96.12879195 129.25740059 89.60434696 129.24517585 83.07977641 129.21604407 C76.93452483 129.18882906 70.78953374 129.18053174 64.64422762 129.18653357 C62.39286599 129.18543607 60.14149535 129.17751878 57.89018595 129.1621424 C37.90181135 128.60710082 37.90181135 128.60710082 21.39570391 138.6389643 Z " fill="#CD0E2C" transform="translate(379.6042960882187,-0.6389642953872681)"/>
<path d="M0 0 C1.08337646 -0.00029205 2.16675293 -0.00058411 3.28295898 -0.00088501 C6.85953819 0.00050697 10.43590841 0.01606224 14.01245117 0.03173828 C16.49395128 0.03546887 18.97545285 0.03831563 21.45695496 0.04031372 C27.98522007 0.04794651 34.51339605 0.06759209 41.04162598 0.08972168 C47.70440999 0.11126916 54.36721993 0.11931706 61.0300293 0.12939453 C74.10103317 0.15083821 87.17196593 0.18568626 100.24291992 0.22705078 C98.05345762 29.84828716 95.53377163 59.43677755 92.93586159 89.02467537 C92.4211557 94.89142741 91.90841963 100.75835156 91.39558078 106.62526703 C90.22171966 120.05329657 89.04510465 133.48108388 87.86754392 146.90878943 C86.95928277 157.26580496 86.05173525 167.62288281 85.14467239 177.98000336 C85.01361549 179.47641082 84.88255812 180.97281825 84.75150032 182.46922563 C84.68643368 183.21215137 84.62136704 183.95507712 84.55432869 184.72051576 C84.48913626 185.46487672 84.42394384 186.20923769 84.35677588 186.97615504 C84.29146485 187.72187403 84.22615383 188.46759302 84.15886368 189.23590956 C82.32849984 210.13467811 80.49726728 231.0333704 78.66422081 251.93190384 C78.59544964 252.71596667 78.52667848 253.50002949 78.45582334 254.3078518 C78.10737175 258.28053658 77.75891268 262.2532207 77.41045122 266.22590461 C77.3066663 267.40912084 77.3066663 267.40912084 77.20078471 268.61624042 C77.06086792 270.21138264 76.92095064 271.80652482 76.78103289 273.40166697 C74.59587965 298.31391537 72.4138313 323.22643409 70.23413086 348.13916016 C67.77874462 376.20277475 65.32091513 404.26617385 62.8595463 432.3292644 C62.5975349 435.31666416 62.33553245 438.3040647 62.07353592 441.29146576 C62.00903477 442.02691863 61.94453362 442.76237151 61.87807789 443.52011083 C60.90415305 454.62556284 59.93216308 465.73118313 58.96116257 476.83689117 C57.85955767 489.43636504 56.75543862 502.03561558 55.64790152 514.63456944 C55.08288238 521.06324791 54.51906353 527.49202587 53.958395 533.92108536 C53.44594337 539.79690757 52.93016138 545.67242727 52.41164358 551.54771718 C52.22403 553.68039506 52.0376696 555.81318359 51.85264353 557.94608751 C51.60231562 560.82967716 51.34755113 563.71284032 51.09160423 566.59593582 C51.01968455 567.43683589 50.94776487 568.27773595 50.87366581 569.14411783 C50.58620935 572.33836789 50.26110576 575.17249328 49.24291992 578.22705078 C112.93291992 578.22705078 176.62291992 578.22705078 242.24291992 578.22705078 C238.04909488 631.34883466 238.04909488 631.34883466 236.67285156 647.54223633 C236.42203682 650.50487641 236.17959515 653.46804724 235.94335938 656.43188477 C235.64860444 660.12736887 235.3388156 663.82131735 235.01870537 667.51468849 C234.84698655 669.53822935 234.69017797 671.56301854 234.53395081 673.58781433 C233.71524087 682.78983249 232.39943533 693.63552343 225.24291992 700.22705078 C214.62617664 707.34569084 214.62617664 707.34569084 207.89642525 707.36127186 C207.00323652 707.3657297 206.1100478 707.37018755 205.18979275 707.37478048 C204.20742512 707.37459611 203.22505749 707.37441175 202.21292114 707.3742218 C201.17005727 707.37789849 200.12719339 707.38157518 199.05272758 707.38536328 C195.54076204 707.39642008 192.02882606 707.40024741 188.5168457 707.40405273 C186.00550746 707.41031605 183.49417015 707.41696273 180.98283386 707.42396545 C173.43186094 707.44321048 165.8808932 707.45379831 158.32990199 707.46269324 C154.77117152 707.46707802 151.21244253 707.47244452 147.65371323 707.47768211 C135.81720094 707.49469809 123.98068958 707.50918951 112.14416695 707.51643085 C109.07226688 707.51834067 106.00036683 707.52026101 102.9284668 707.5222168 C102.16498534 707.52270054 101.40150388 707.52318428 100.61488663 707.52368268 C88.26304786 707.5319726 75.91130627 707.55729025 63.55950989 707.58979747 C50.86818093 707.62292477 38.17690123 707.64088492 25.48552883 707.6440751 C18.36398032 707.64623548 11.2425733 707.65491408 4.12106705 707.68053627 C-2.58483446 707.70460758 -9.29043823 707.70803345 -15.99638939 707.69777489 C-18.45170246 707.69728037 -20.90702819 707.70357591 -23.36230278 707.71733093 C-41.91894063 707.81543284 -57.31921274 706.68999597 -71.88208008 693.85205078 C-82.98588693 682.07255589 -87.42697988 665.16276275 -87.03493595 649.37834835 C-86.7562842 643.12014205 -86.06509306 636.90562766 -85.41294861 630.67738342 C-85.13565124 627.97667198 -84.86159339 625.27563955 -84.58869743 622.57448006 C-84.51877653 621.88262075 -84.44885562 621.19076144 -84.3768159 620.4779367 C-83.16302963 608.38778018 -82.13519652 596.27989618 -81.08133493 584.1749631 C-80.74454592 580.31148975 -80.40553767 576.44821093 -80.06683826 572.58490467 C-79.47930083 565.87992324 -78.8931075 559.17482544 -78.30787277 552.46964264 C-77.44647421 542.60038727 -76.58298786 532.73131535 -75.71907914 522.86227943 C-74.28485844 506.477516 -72.85233108 490.09260497 -71.42074585 473.70761108 C-70.01959256 457.6710706 -68.61733365 441.63462732 -67.21377563 425.59829712 C-67.12669888 424.60339939 -67.03962213 423.60850166 -66.94990668 422.58345551 C-66.59769022 418.55924137 -66.24546711 414.5350278 -65.89323603 410.51081494 C-59.72382965 340.0254044 -53.5605714 269.53946399 -47.43509179 199.05022091 C-46.6487129 190.00103113 -45.86185454 180.95188321 -45.07449765 171.90277847 C-44.89998128 169.89705787 -44.72547477 167.89133642 -44.55097145 165.88561469 C-43.62246365 155.21349312 -43.62246365 155.21349312 -43.19538248 150.30544865 C-41.91940294 135.64103805 -40.64628823 120.97638535 -39.37810659 106.31129825 C-38.60210797 97.33973565 -37.82321551 88.36842749 -37.0419631 79.39732087 C-36.51893058 73.38963913 -35.99933282 67.38167578 -35.48272544 61.3734383 C-35.17295086 57.78134415 -34.85958204 54.18957053 -34.54513824 50.59788239 C-34.40375972 48.97493453 -34.26382307 47.35186022 -34.12554562 45.72864521 C-31.40774034 13.85903597 -31.40774034 13.85903597 -22.53833008 6.34814453 C-20.32223069 4.81534245 -18.15216387 3.45999826 -15.75708008 2.22705078 C-15.10761917 1.87788605 -14.45815826 1.52872131 -13.78901672 1.16897583 C-9.21283763 -0.2526956 -4.76425097 -0.03358734 0 0 Z " fill="#CD0E2C" transform="translate(90.757080078125,-0.22705078125)"/>
</svg>
